<svg width="96" height="96" viewBox="0 0 96 96" fill="none" xmlns="http://www.w3.org/2000/svg">
<path fill-rule="evenodd" clip-rule="evenodd" d="M64.7081 21.1427C64.7081 24.4157 54.6666 27.0691 42.2798 27.0691C29.8929 27.0691 19.8514 24.4157 19.8514 21.1427C19.8514 17.8696 29.8929 15.2163 42.2798 15.2163C54.6666 15.2163 64.7081 17.8696 64.7081 21.1427ZM59.1294 22.2428C60.3161 21.2109 58.0623 19.0596 57.7854 19.1208C60.5494 23.7342 41.6454 25.1396 38.9449 25.305C51.5383 25.8561 58.0923 23.709 59.1294 22.2428Z" fill="#5C2B94"/>
<path d="M17.0617 24.2088C13.7228 25.0957 8.48769 27.4301 9.47457 31.0003C11.1127 36.9265 22.5073 38.5875 23.4251 38.6487C22.8948 38.5263 21.8954 37.7064 22.1402 35.4058C18.7953 35.0591 12.411 32.5984 12.5413 29.3752C12.6201 27.4279 15.2513 25.5976 16.4974 24.7309C17.0071 24.3764 17.285 24.183 17.0617 24.2088Z" fill="#5C2B94"/>
<path d="M19.3135 29.4539V22.4985C20.4733 23.7825 23.6092 26.5628 26.8737 27.4127C27.7712 27.664 28.3393 27.6767 28.9138 27.6894C29.5491 27.7036 30.192 27.7179 31.2964 28.0553C32.4378 28.4041 34.1455 29.3061 33.9977 30.9134C33.8498 32.5207 32.8428 33.0467 32.1245 33.2735C31.6055 33.4375 30.5781 33.1585 30.1245 32.3268C29.7616 31.6615 29.2425 31.3692 29.0283 31.3062C28.6755 31.155 27.8943 31.2063 27.5919 31.9624C27.2895 32.7184 27.4659 33.4483 27.5919 33.8011C28.0833 34.8595 29.0586 37.0671 29.0283 37.4299C28.9905 37.8836 28.5369 38.5262 27.9699 38.6018C27.4029 38.6774 25.9286 38.5262 25.475 38.2238C25.0214 37.9214 24.719 37.4677 24.9836 36.2581C25.1953 35.2904 25.853 33.7885 26.1554 33.1585C26.3823 32.604 26.6998 31.2911 26.1554 30.4746C25.6111 29.6581 24.1142 30.2604 23.4338 30.6636C23.2196 30.8526 22.4812 31.2835 21.2413 31.4952C20.0015 31.7069 19.4395 30.2225 19.3135 29.4539Z" fill="#5C2B94"/>
<path d="M8.83199 31.3252C8.50638 31.662 7.96969 32.7736 8.42782 34.5254C8.66708 35.4403 9.20038 36.6669 9.8115 38.0724C10.6631 40.031 11.6658 42.3371 12.2345 44.6318C13.199 48.523 14.8859 56.8468 14.8315 58.7117L14.8285 58.7808C14.8298 58.7588 14.8308 58.7358 14.8315 58.7117C15.0309 54.0523 15.0501 43.802 13.5484 39.5113C13.3013 39.0958 12.9555 38.3052 13.5484 38.4669C13.615 38.4851 13.6911 38.5041 13.7752 38.5251C14.628 38.7377 16.3096 39.157 17.3214 41.0272C18.4331 43.0822 18.7363 44.295 18.6689 46.2152C18.5679 46.698 18.3455 47.7985 18.2647 48.3375C18.2335 48.5455 18.1862 48.7182 18.1378 48.8952C18.0293 49.2916 17.9149 49.7097 17.9615 50.5946C18.0289 51.8747 18.6016 53.0201 20.3196 52.818C22.0377 52.6159 22.6778 51.74 22.8125 50.5946C22.9204 49.6783 21.4875 47.8097 20.7576 46.99C20.4769 46.5857 19.9558 45.501 20.1175 44.396C20.3196 43.0148 22.3072 40.8588 24.8338 40.7577C26.8551 40.6769 27.5625 41.3978 27.6636 41.7684C28.8202 43.3966 31.5781 46.6868 33.3569 46.8215C35.5803 46.99 36.9278 46.6868 37.9047 46.2152C38.8817 45.7435 47.9827 41.5158 50.1568 42.708C50.6711 42.8096 51.7067 43.3937 51.7347 44.9172C51.7628 46.4407 51.5594 47.8322 51.4542 48.3375C51.3023 48.8338 51.0895 50.0579 51.4542 50.9837L51.4862 51.0651C51.9389 52.2181 52.5697 53.8248 55.2414 53.8591C57.9765 53.8942 58.222 51.0121 58.1519 50.5946C58.1476 50.5693 58.1435 50.5409 58.1389 50.5097C58.0686 50.0268 57.8976 48.854 55.592 47.3718C55.1245 47.103 54.2104 46.2848 54.2946 45.1627C54.3787 44.0405 55.4284 43.0587 55.9427 42.708C56.1882 42.5678 57.4505 42.4836 60.5364 43.2691C63.6222 44.0546 64.6976 44.8588 64.8495 45.1627C65.2002 45.338 65.8314 45.857 65.5508 46.5302C65.2703 47.2035 64.2885 48.9147 63.8326 49.6862C63.2131 50.5979 61.9531 52.6598 61.8689 53.6136C61.8528 53.7954 61.8327 53.9748 61.813 54.1506C61.7034 55.1276 61.6062 55.9946 62.2897 56.5592C63.0962 57.2255 64.5339 57.7514 65.5508 57.1553C66.1981 56.7759 66.3907 53.8683 66.5719 51.1353C66.6753 49.5741 66.775 48.0698 66.9535 47.1264C67.3462 45.0504 68.6601 42.2639 69.2679 41.13C68.9523 44.6834 68.258 52.204 68.0055 53.8591C67.753 55.5142 67.199 59.4814 66.9535 61.2581C67.6314 60.3697 69.3661 56.1805 70.8809 46.5302L73.5109 32.9596C71.816 34.5493 65.5427 38.1014 53.5921 40.0932C38.6539 42.5829 11.531 42.0236 8.83199 31.3252Z" fill="#5C2B94"/>
<path d="M39.1201 47.4021H35.819V50.6152H39.1201V47.4021Z" fill="#5C2B94"/>
<path d="M39.1201 51.9055H35.819V55.1187H39.1201V51.9055Z" fill="#5C2B94"/>
<path d="M40.7491 47.4021H44.0503V50.6152H40.7491V47.4021Z" fill="#5C2B94"/>
<path d="M44.0503 51.9055H40.7491V55.1187H44.0503V51.9055Z" fill="#5C2B94"/>
<path d="M64.992 22.9189V30.6592C64.8165 29.8342 63.939 28.3528 61.8329 29.0268C59.7267 29.7008 60.1128 31.3085 60.5692 32.0281C60.7798 32.2914 61.1378 33.0917 60.8851 34.1869C60.5692 35.5559 59.2528 36.0824 58.621 36.1351C57.9891 36.1877 57.0941 35.5559 57.5153 34.1869C57.9365 32.8179 58.2139 31.4992 58.019 30.8029C57.824 30.1067 56.8493 29.3826 55.9023 29.6611C54.9554 29.9396 54.649 30.6637 54.7326 31.4714C54.8161 32.279 55.011 33.0867 55.763 33.7273C56.5149 34.3678 57.0441 36.3174 56.8491 37.2364C56.6542 38.1555 56.3844 39.3085 54.7326 39.3085H54.7062C53.295 39.3086 51.9203 39.3087 52.031 36.6516C52.0914 35.2011 52.5043 34.2917 52.8472 33.5363C53.1364 32.8993 53.3759 32.3719 53.3122 31.722C53.1974 30.552 52.9315 30.4402 52.4054 30.2193C52.2929 30.172 52.1684 30.1197 52.031 30.051C51.2512 29.6611 49.6637 30.2181 49.3295 30.97C48.9953 31.722 46.6558 33.5045 45.124 33.7273C43.5922 33.9501 41.392 33.0031 40.9185 32.3626C40.4451 31.722 39.1909 30.5712 37.9163 31.722C36.8967 32.6426 38.0422 34.8868 38.7424 35.8939C39.1516 36.4761 39.8848 37.8387 39.545 38.6317C39.1201 39.623 38.0816 39.8591 37.2083 39.8355C36.335 39.8119 34.9661 39.5286 34.9897 37.9473C35.0022 37.11 35.3455 35.9448 35.6833 34.7981C35.9836 33.779 36.2795 32.7745 36.335 32.0281C36.3528 31.7892 36.3631 31.5649 36.3727 31.3547C36.4271 30.1688 36.461 29.4288 37.704 29.0268C38.8746 28.6482 42.2356 28.585 43.7698 28.6008C47.5911 28.425 55.8297 27.9288 58.2138 27.3495C61.1938 26.6254 64.5848 24.5599 64.992 22.9189Z" fill="#5C2B94"/>
<path d="M70.1547 24.8324C68.4116 23.7373 66.7812 23.5062 65.9268 23.6681C67.57 24.1283 69.1656 26.3054 69.2488 28.7895C69.3867 32.9128 63.7085 35.7914 62.676 36.2824C63.3396 36.4423 68.6243 33.7519 70.8262 32.2402C73.0281 30.7285 73.2581 29.0524 73.1595 28.3952C73.0609 27.7379 72.0992 26.054 70.1547 24.8324Z" fill="#5C2B94"/>
<path d="M74.2575 21.9169C74.524 20.7279 75.9401 20.294 76.6149 20.2257C76.7319 20.3901 76.4979 20.465 76.1537 20.5431C75.8094 20.6213 74.5708 21.0249 74.6359 22.1968C74.6909 23.1867 76.5019 23.6748 77.2649 23.8805C77.4052 23.9183 77.51 23.9466 77.562 23.9667L77.5844 23.9753C77.9368 24.1107 78.8268 24.4526 78.1282 25.4403C77.4144 26.4496 77.1274 28.025 77.562 28.7143C77.9644 29.3523 78.4234 29.1044 79.5828 28.4783L79.5869 28.4761C79.6788 28.4265 79.775 28.3745 79.876 28.3204C81.2545 27.5819 83.1254 28.345 82.5838 28.3204C82.1506 28.3007 81.8064 28.6896 81.6884 28.8865C81.1348 28.5475 80.4117 28.8961 79.6752 29.2512C78.7415 29.7014 77.7863 30.162 77.1274 29.2452C76.0073 27.6869 77.2329 25.7376 77.6467 25.0796C77.6683 25.0451 77.6877 25.0142 77.7045 24.9871C77.9371 24.6104 77.2974 24.405 76.4344 24.1279C76.2762 24.0771 76.1102 24.0238 75.941 23.9667C75.0877 23.6787 73.991 23.1058 74.2575 21.9169Z" fill="#5C2B94"/>
<path fill-rule="evenodd" clip-rule="evenodd" d="M8.20191 69.7642C4.8301 66.2424 6.91929 63.0242 8.63804 61.5789C8.72189 61.5084 8.83051 61.6102 8.77699 61.7058C7.40461 64.1575 8.02206 65.7201 8.67374 66.9C8.90963 67.3271 9.18324 67.7342 9.51872 68.0885C14.5575 73.4096 27.8925 75.2797 32.3903 75.6267L32.5892 63.5945C34.5208 53.0633 48.2572 56.001 48.2572 63.5945V75.8256C55.1985 75.4409 63.6947 73.6171 68.8783 70.8725C73.3982 68.4792 75.7939 65.2544 77.066 58.9446C81.2105 74.3093 57.2536 78.2515 41.4846 78.0494C25.7155 77.8472 12.7506 74.5152 8.20191 69.7642ZM46.4098 67.1208C46.4098 67.9897 45.7054 68.6941 44.8365 68.6941C43.9676 68.6941 43.2632 67.9897 43.2632 67.1208C43.2632 66.2519 43.9676 65.5475 44.8365 65.5475C45.7054 65.5475 46.4098 66.2519 46.4098 67.1208Z" fill="#5C2B94"/>
<path d="M74.6938 45.103C75.381 44.6251 77.4415 42.8198 78.4248 41.9485L78.8834 42.5265C78.8834 42.5265 75.1525 46.002 74.7695 46.2574C74.3865 46.5127 73.4928 47.3213 73.2233 48.1583C72.9538 48.9952 73.5212 50.0024 73.7482 50.3145C73.9255 50.5584 74.6746 52.07 75.2971 53.3261C75.4711 53.6772 75.6352 54.0083 75.7741 54.2862C76.283 55.3039 76.5888 57.6229 76.678 58.6551H76.36C76.266 57.6054 76.0107 56.8343 75.4569 55.1616L75.3389 54.8051C74.83 53.2651 73.8457 51.8209 73.4171 51.2914C72.3957 51.8128 71.385 51.8247 71.0073 51.7654L71.1062 51.2914C72.1965 51.3862 72.8509 50.791 73.0418 50.4815C71.2048 47.7755 73.8349 45.7005 74.6938 45.103Z" fill="#5C2B94"/>
<path d="M79.8336 46.3964C79.3943 45.4562 79.2909 43.6412 79.2941 42.8513L80.1418 43.2945C80.1495 44.0959 80.4726 45.7349 80.6331 46.4542L79.8336 46.3964Z" fill="#5C2B94"/>
<path d="M71.8552 65.5222L70.01 66.7526L70.3918 67.1765L72.1734 65.9039L71.8552 65.5222Z" fill="#5C2B94"/>
<path d="M79.1147 30.7169C79.5393 29.3961 80.9426 29.0659 81.5912 29.0658C82.3971 27.3165 84.972 28.8889 85.7779 30.0093C86.5838 31.1297 86.741 33.8814 86.2103 35.1197C85.7857 36.1104 85.3913 37.7863 85.2472 38.5005C83.9578 35.9374 81.7354 35.729 80.7853 35.9453C79.3898 34.8642 78.5839 32.368 79.1147 30.7169Z" fill="url(#paint0_linear_194_683)"/>
<path d="M67.8215 47.2224C66.8426 47.6255 67.3108 48.733 67.6689 49.1496C66.9453 48.7767 65.3434 48.0869 64.4955 49.1496C63.7023 50.1437 64.0131 51.3725 64.4955 52.425C64.9778 53.4774 66.3316 54.0611 67.2524 54.6092C67.9891 55.0478 69.4596 56.7799 70.1028 57.5912C69.8835 56.1002 70.8566 53.135 71.1198 51.6001C71.3829 50.0653 70.9798 48.777 70.3221 47.8999C69.6643 47.0229 68.779 46.8281 67.8215 47.2224Z" fill="url(#paint1_linear_194_683)"/>
<path d="M76.3942 58.5059C74.8316 58.5061 74.3968 58.9558 74.7297 59.9304C73.5459 59.1904 72.2881 59.4307 71.4745 60.6699C70.4951 62.1617 70.9932 63.8152 71.4747 64.868C72.1849 66.4206 74.3638 67.1072 75.3942 67.4017C76.6888 67.7715 80.9793 69.8613 82.186 70.7385C81.9667 69.2475 80.9123 69.8311 81.5566 62.7318C81.6974 61.181 80.9991 59.8377 79.5936 59.1904C78.5978 58.7319 77.5778 58.5057 76.3942 58.5059Z" fill="url(#paint2_linear_194_683)"/>
<path d="M66.0497 68.9715C66.0497 70.0639 66.4082 70.2585 66.6788 70.1923C66.6676 69.5301 66.6717 68.0783 67.0504 67.3208C67.5238 66.374 67.9244 66.022 68.4949 65.9856C69.0654 65.9492 70.5827 66.3012 71.5417 68.6803C72.5006 71.0595 71.5386 73.2863 70.9419 74.2042C70.3452 75.1222 68.8664 76.4687 68.155 77.0195C67.4436 77.5702 66.3063 78.0137 65.2047 79.0005C64.1032 79.9873 63.9108 79.9967 63.548 80.7837C63.2676 80.5344 61.2735 76.6395 60.7126 75.4866C60.1517 74.3337 59.523 71.4751 59.6879 69.4973C59.8527 67.5196 61.3195 65.7725 62.5721 65.2121C63.8247 64.6517 65.0004 64.7098 65.8244 65.4515C66.6109 66.1593 66.0497 68.1461 66.0497 68.9715Z" fill="url(#paint3_linear_194_683)"/>
<path d="M82.8403 58.5461C83.1914 59.1253 83.7765 60.0747 84.0251 60.477C84.2677 59.6301 84.9084 57.9462 85.2086 57.0831C85.5088 56.22 85.4338 55.5069 87.8355 57.4959C90.2373 59.4848 89.8995 64.551 88.511 67.253C87.4002 69.4146 86.397 72.682 86.0342 74.0454C85.824 72.9647 83.2752 69.5426 82.027 67.9667C82.0393 67.3529 82.0821 66.0202 82.1552 65.6C82.2466 65.0746 82.5817 61.6811 81.7602 60.3522C81.103 59.2891 80.3266 58.838 80.0205 58.7454C80.1413 58.238 80.9628 57.501 81.6152 57.2715C82.2676 57.0419 82.4014 57.8219 82.8403 58.5461Z" fill="url(#paint4_linear_194_683)"/>
<path d="M79.0741 46.6346C80.2136 45.6631 81.9827 47.3089 82.7247 48.2533C82.4786 47.7857 81.3653 45.0805 82.7247 45.4644C84.0842 45.8484 85.1306 46.7872 85.9774 47.6731C86.7956 48.5291 87.3962 49.9524 87.271 51.1422C87.1457 52.332 85.601 54.1272 84.9748 55.1082C84.4739 55.8931 84.126 57.2861 84.0146 57.8845C82.8874 57.0426 80.7372 55.4774 79.8816 54.5029C79.1301 53.6471 78.3573 51.9207 78.1273 50.5763L78.1227 50.5492C77.8941 49.2133 77.6592 47.8409 79.0741 46.6346Z" fill="url(#paint5_linear_194_683)"/>
<path d="M77.7404 37.012C78.768 36.1199 79.6313 37.1615 79.9345 37.7938C79.9345 37.4955 80.1451 36.8482 80.9873 36.6449C82.0401 36.3908 83.9376 37.5483 84.5728 38.5929C85.2081 39.6375 85.1798 41.7832 85.2504 42.969C85.3069 43.9176 85.8198 45.717 86.0692 46.4981C85.3634 45.9193 83.7682 45.0441 83.0059 44.6771C82.2436 44.3101 80.8319 43.9713 79.025 42.7855C77.2181 41.5997 76.4559 38.1272 77.7404 37.012Z" fill="url(#paint6_linear_194_683)"/>
<defs>
<linearGradient id="paint0_linear_194_683" x1="78.9502" y1="31.7194" x2="86.5196" y2="31.7194" gradientUnits="userSpaceOnUse">
<stop stop-color="#8D6198"/>
<stop offset="0.27" stop-color="#95AA69"/>
<stop offset="0.513121" stop-color="#98C954"/>
<stop offset="1" stop-color="#9ACC53"/>
</linearGradient>
<linearGradient id="paint1_linear_194_683" x1="63.2406" y1="50.6452" x2="71.2012" y2="50.6452" gradientUnits="userSpaceOnUse">
<stop stop-color="#6D419F"/>
<stop offset="0.37689" stop-color="#9ACC53"/>
</linearGradient>
<linearGradient id="paint2_linear_194_683" x1="69.9912" y1="62.6478" x2="78.7815" y2="62.6478" gradientUnits="userSpaceOnUse">
<stop stop-color="#6D419F"/>
<stop offset="0.484891" stop-color="#9ACC53"/>
<stop offset="0.95" stop-color="#9ACC53"/>
</linearGradient>
<linearGradient id="paint3_linear_194_683" x1="59.0644" y1="70.7823" x2="72.5415" y2="70.7823" gradientUnits="userSpaceOnUse">
<stop stop-color="#846292"/>
<stop offset="0.2" stop-color="#8E9672"/>
<stop offset="0.465" stop-color="#9ACC53"/>
<stop offset="1" stop-color="#9ACC52"/>
</linearGradient>
<linearGradient id="paint4_linear_194_683" x1="80.0205" y1="58.6593" x2="89.5974" y2="58.6593" gradientUnits="userSpaceOnUse">
<stop stop-color="#8E6894"/>
<stop offset="0.201605" stop-color="#9ACC53"/>
<stop offset="0.94892" stop-color="#9ACC53"/>
</linearGradient>
<linearGradient id="paint5_linear_194_683" x1="77.744" y1="50.607" x2="87.2875" y2="50.3171" gradientUnits="userSpaceOnUse">
<stop stop-color="#8D6198"/>
<stop offset="0.290036" stop-color="#94AD67"/>
<stop offset="0.563285" stop-color="#9ACC52"/>
<stop offset="1" stop-color="#9ACC53"/>
</linearGradient>
<linearGradient id="paint6_linear_194_683" x1="76.4858" y1="39.122" x2="86.0692" y2="39.122" gradientUnits="userSpaceOnUse">
<stop stop-color="#8B569F"/>
<stop offset="0.29" stop-color="#939577"/>
<stop offset="1" stop-color="#9ACC53"/>
</linearGradient>
</defs>
</svg>
