<svg width="179" height="67" viewBox="0 0 179 67" fill="none" xmlns="http://www.w3.org/2000/svg">
<path d="M32.8977 63.5698C32.4497 63.5058 31.9697 63.4738 31.4577 63.4738C30.9457 63.4098 30.4337 63.2498 29.9217 62.9938C29.6657 62.8658 29.4737 62.8018 29.3457 62.8018C28.8337 62.6098 28.4817 62.2578 28.2897 61.7458V61.4578C27.7777 60.3698 27.5857 59.2498 27.7137 58.0978C27.7137 57.9058 27.7137 57.7138 27.7137 57.5218C27.7137 57.3298 27.6817 57.1378 27.6177 56.9458C27.5537 56.4978 27.4897 56.0498 27.4257 55.6018C27.4257 55.1538 27.4257 54.7058 27.4257 54.2578C27.4257 54.0018 27.3937 53.7778 27.3297 53.5858C27.3297 53.3298 27.3297 53.0738 27.3297 52.8178C27.2657 52.5618 27.2337 52.3378 27.2337 52.1458C27.2337 51.9538 27.2337 51.7618 27.2337 51.5698C27.2337 50.8658 27.2337 50.1938 27.2337 49.5538C27.2337 48.9138 27.1697 48.2738 27.0417 47.6338C26.9777 47.4418 26.9457 47.2818 26.9457 47.1538C27.0097 46.9618 27.0097 46.7698 26.9457 46.5778C26.9457 46.1938 26.9457 45.8098 26.9457 45.4258C26.9457 45.0418 26.8817 44.6578 26.7537 44.2738C26.6897 44.0818 26.6577 43.8898 26.6577 43.6978C26.7217 43.4418 26.7217 43.2178 26.6577 43.0258L26.5617 42.3538C26.4337 42.0338 26.2417 41.8738 25.9857 41.8738C25.6657 41.8098 25.3137 41.7778 24.9297 41.7778C24.6097 41.7138 24.2577 41.7138 23.8737 41.7778C23.4897 41.8418 23.0737 41.9058 22.6257 41.9698C22.2417 41.9698 21.8577 41.9698 21.4737 41.9698C20.8337 41.9698 20.2257 41.9698 19.6497 41.9698C19.0737 41.9698 18.4657 42.0338 17.8257 42.1618H17.3457C16.7697 42.1618 16.1937 42.2258 15.6177 42.3538C15.0417 42.4178 14.4657 42.5138 13.8897 42.6418C13.5057 42.6418 13.1857 42.6738 12.9297 42.7378C12.0337 42.8658 11.2017 43.1538 10.4337 43.6018C10.1777 43.7298 9.92169 43.8898 9.66569 44.0818C9.40969 44.2738 9.12169 44.4338 8.80169 44.5618C8.48169 44.7538 8.25769 45.0738 8.12969 45.5218C8.06569 45.8418 7.96969 46.1938 7.84169 46.5778C7.77769 46.8978 7.74569 47.2498 7.74569 47.6338C7.74569 48.1458 7.55369 48.6578 7.16969 49.1698C6.91369 49.6178 6.49769 49.8418 5.92169 49.8418C5.34569 49.8418 4.89769 49.6178 4.57769 49.1698C4.32169 48.9138 4.12969 48.5618 4.00169 48.1138C3.87369 47.4738 3.74569 46.9298 3.61769 46.4818L3.32969 45.0418C3.13769 44.5938 2.91369 44.1458 2.65769 43.6978L2.08169 42.8338C1.31369 41.5538 0.929688 40.2098 0.929688 38.8018C0.929688 38.4178 1.02569 38.0338 1.21769 37.6498L1.50569 36.7858C1.63369 36.4658 1.72969 36.1458 1.79369 35.8258C1.85769 35.4418 1.92169 35.0898 1.98569 34.7698C2.11369 33.6178 2.30569 32.4658 2.56169 31.3138C2.81769 30.0978 3.10569 28.8818 3.42569 27.6658C3.74569 26.4498 4.06569 25.2338 4.38569 24.0178C4.57769 23.3778 4.76969 22.7698 4.96169 22.1938C5.15369 21.5538 5.31369 20.9138 5.44169 20.2738C5.69769 19.2498 5.95369 18.2578 6.20969 17.2978C6.46569 16.3378 6.72169 15.3458 6.97769 14.3218C6.97769 14.1938 7.04169 14.0018 7.16969 13.7458C7.48969 12.9778 7.77769 12.2098 8.03369 11.4418C8.35369 10.6098 8.70569 9.84181 9.08969 9.13781L9.37769 8.56181C9.44169 8.30581 9.53769 8.08181 9.66569 7.88981C9.79369 7.69781 9.92169 7.47381 10.0497 7.21781C10.3057 6.89781 10.5937 6.64181 10.9137 6.44981C11.2337 6.19381 11.5537 6.00181 11.8737 5.87381C12.3217 5.68181 12.7377 5.55381 13.1217 5.48981C13.5697 5.42581 14.0177 5.36181 14.4657 5.29781C14.8497 5.23381 15.2337 5.26581 15.6177 5.39381C16.0017 5.52181 16.3537 5.68181 16.6737 5.87381C17.1217 6.06581 17.5377 6.35381 17.9217 6.73781C18.9457 7.76181 19.3617 8.97781 19.1697 10.3858C19.0417 11.5378 18.7217 12.6258 18.2097 13.6498C17.9537 14.2258 17.6977 14.8338 17.4417 15.4738C17.2497 16.0498 17.0577 16.6578 16.8657 17.2978C16.7377 17.8098 16.5777 18.3218 16.3857 18.8338C16.2577 19.3458 16.0977 19.8578 15.9057 20.3698C15.8417 20.5618 15.7777 20.7538 15.7137 20.9458C15.6497 21.0738 15.5857 21.2338 15.5217 21.4258C15.4577 21.5538 15.3617 21.6818 15.2337 21.8098C15.1697 21.9378 15.0737 22.0658 14.9457 22.1938C14.6257 22.5138 14.4017 22.9618 14.2737 23.5378C14.2097 23.7938 14.1457 24.0498 14.0817 24.3058C14.0177 24.5618 13.9217 24.8498 13.7937 25.1698C13.6657 25.5538 13.6017 25.8418 13.6017 26.0338C13.6657 26.3538 13.5697 26.6418 13.3137 26.8978C12.9297 27.4098 12.6737 28.0178 12.5457 28.7218C12.4817 29.1058 12.3857 29.4898 12.2577 29.8738C12.1297 30.2578 12.0017 30.6098 11.8737 30.9298L11.3937 33.4258C11.3937 33.4898 11.4577 33.5858 11.5857 33.7138H11.9697C12.3537 33.7138 12.7057 33.7138 13.0257 33.7138C13.4097 33.7138 13.7617 33.6818 14.0817 33.6178C14.4657 33.6178 14.8497 33.6178 15.2337 33.6178C15.6177 33.5538 16.0337 33.5218 16.4817 33.5218C16.9937 33.4578 17.5377 33.4258 18.1137 33.4258C18.6897 33.4258 19.2337 33.3938 19.7457 33.3298C19.9377 33.2658 20.1297 33.2338 20.3217 33.2338C20.5137 33.2338 20.7057 33.2338 20.8977 33.2338C21.3457 33.2338 21.7937 33.2338 22.2417 33.2338C22.6897 33.2338 23.1377 33.2658 23.5857 33.3298C23.7777 33.3298 23.9697 33.3298 24.1617 33.3298C24.4177 33.3298 24.6417 33.3618 24.8337 33.4258H25.9857C26.2417 33.4258 26.3697 33.2978 26.3697 33.0418C26.3697 32.9138 26.3697 32.8178 26.3697 32.7538C26.4337 32.6898 26.4657 32.6258 26.4657 32.5618V26.6098C26.4657 26.4178 26.4657 26.2578 26.4657 26.1298C26.5297 25.9378 26.5617 25.7778 26.5617 25.6498C26.6257 25.3298 26.6577 25.0418 26.6577 24.7858C26.6577 24.4658 26.6577 24.1778 26.6577 23.9218C26.5937 23.6018 26.5617 23.3138 26.5617 23.0578C26.6257 22.8018 26.6577 22.5458 26.6577 22.2898C26.6577 21.2018 26.6897 20.0818 26.7537 18.9298C26.8177 17.7778 26.8817 16.6578 26.9457 15.5698C27.0737 14.7378 27.1697 13.9058 27.2337 13.0738C27.3617 12.2418 27.5217 11.4098 27.7137 10.5778C27.8417 10.0658 27.9377 9.58581 28.0017 9.13781C28.1297 8.62581 28.2577 8.14581 28.3857 7.69781C28.5777 7.12181 28.8337 6.48181 29.1537 5.77781C29.3457 5.32981 29.6017 4.97781 29.9217 4.72181C30.2417 4.40181 30.5617 4.11381 30.8817 3.85781C31.0097 3.85781 31.1057 3.85781 31.1697 3.85781C31.2337 3.79381 31.2977 3.76181 31.3617 3.76181C31.4897 3.69781 31.6177 3.66581 31.7457 3.66581C31.8737 3.60181 31.9697 3.53781 32.0337 3.47381C32.4817 3.28181 32.8977 3.21781 33.2817 3.28181L35.1057 3.56981L35.3937 3.85781C35.3937 3.92181 35.3937 3.98581 35.3937 4.04981C35.4577 4.04981 35.4897 4.08181 35.4897 4.14581C35.6177 4.40181 35.7137 4.65781 35.7777 4.91381C35.9057 5.10581 36.0337 5.29781 36.1617 5.48981C36.5457 6.06581 36.7057 6.70581 36.6417 7.40981V7.50581C36.5777 7.88981 36.7057 8.20981 37.0257 8.46581C37.4097 8.72181 37.5377 9.07381 37.4097 9.52181V9.71381C37.2817 10.1618 37.1537 10.6098 37.0257 11.0578C36.8977 11.5058 36.7697 11.9538 36.6417 12.4018C36.6417 12.5298 36.5137 12.5618 36.2577 12.4978C36.1937 12.4978 36.1617 12.4978 36.1617 12.4978C36.1617 12.4338 36.1297 12.4018 36.0657 12.4018C35.8097 12.4018 35.7457 12.4658 35.8737 12.5938L36.0657 12.8818C36.1937 13.2018 36.1297 13.4258 35.8737 13.5538C35.8097 13.5538 35.7457 13.5858 35.6817 13.6498C35.6177 13.7138 35.5857 13.7778 35.5857 13.8418C35.5857 14.0978 35.5857 14.3538 35.5857 14.6098C35.5857 14.8658 35.5537 15.1538 35.4897 15.4738C35.4897 15.5378 35.4897 15.6018 35.4897 15.6658C35.5537 15.6658 35.5857 15.6658 35.5857 15.6658L35.8737 15.9538C36.0017 16.2738 35.9377 16.5298 35.6817 16.7218C35.4257 16.7858 35.2977 16.9458 35.2977 17.2018C35.2977 17.6498 35.2657 18.1618 35.2017 18.7378C35.2017 19.2498 35.2017 19.7618 35.2017 20.2738V23.7298C35.2017 23.9858 35.1697 24.2738 35.1057 24.5938C35.1057 24.9138 35.0737 25.2338 35.0097 25.5538C35.0097 25.8098 35.0417 26.0978 35.1057 26.4178C35.1697 26.6738 35.2017 26.9618 35.2017 27.2818C35.2017 27.4738 35.1697 27.6658 35.1057 27.8578C35.1057 27.9858 35.1057 28.1458 35.1057 28.3378C35.0417 28.5938 34.9777 28.8818 34.9137 29.2018C34.9137 29.4578 34.9137 29.7458 34.9137 30.0658C34.9777 30.4498 35.0097 30.8338 35.0097 31.2178C35.0097 31.6018 35.0097 31.9538 35.0097 32.2738V33.0418C35.1377 33.2978 35.2657 33.4578 35.3937 33.5218C35.5217 33.5218 35.6177 33.5538 35.6817 33.6178C35.7457 33.6178 35.8097 33.6178 35.8737 33.6178C36.0017 33.6178 36.1297 33.6498 36.2577 33.7138C36.4497 33.7138 36.6097 33.6818 36.7377 33.6178C37.2497 33.6178 37.6977 33.6178 38.0817 33.6178C38.5297 33.6178 38.9777 33.5858 39.4257 33.5218H42.2097C43.2337 33.5218 44.1617 33.3938 44.9937 33.1378L46.7217 32.8498H47.2977C47.7457 32.9778 48.1617 33.1378 48.5457 33.3298C48.9297 33.5218 49.2497 33.8098 49.5057 34.1938C49.6337 34.3218 49.6977 34.4178 49.6977 34.4818C49.8257 34.8658 49.9857 35.2178 50.1777 35.5378C50.3697 35.8578 50.4977 36.2098 50.5617 36.5938C50.6897 36.8498 50.7537 36.9778 50.7537 36.9778C50.9457 37.3618 50.9137 37.8418 50.6577 38.4178C50.6577 38.4818 50.6257 38.5458 50.5617 38.6098C50.5617 38.6738 50.5617 38.7698 50.5617 38.8978C50.4977 39.0898 50.5617 39.2498 50.7537 39.3778C50.8817 39.4418 50.9777 39.4738 51.0417 39.4738C51.1697 39.4738 51.2657 39.5058 51.3297 39.5698C51.4577 39.5698 51.5217 39.6338 51.5217 39.7618C51.5217 39.8258 51.4897 39.8898 51.4257 39.9538C51.2337 40.1458 50.9457 40.3698 50.5617 40.6258C50.5617 40.6898 50.5297 40.7218 50.4657 40.7218C50.4017 40.7218 50.3697 40.6898 50.3697 40.6258C50.3057 40.6258 50.2097 40.5618 50.0817 40.4338C49.8257 40.4338 49.6657 40.4658 49.6017 40.5298L49.3137 40.8178C49.1217 41.3298 48.7377 41.6818 48.1617 41.8738C47.7777 42.1298 47.3617 42.2898 46.9137 42.3538C46.4657 42.3538 46.0177 42.3218 45.5697 42.2578C44.8657 42.0658 44.1297 41.9698 43.3617 41.9698C42.5937 41.9698 41.8577 41.9698 41.1537 41.9698C40.7697 41.9058 40.3857 41.8738 40.0017 41.8738C39.6177 41.8738 39.2657 41.8418 38.9457 41.7778C38.7537 41.7138 38.5617 41.7138 38.3697 41.7778C38.1777 41.7778 37.9857 41.7778 37.7937 41.7778C37.6017 41.8418 37.3777 41.8738 37.1217 41.8738C36.9297 41.8738 36.7057 41.8738 36.4497 41.8738C36.1937 41.8738 36.0337 42.0338 35.9697 42.3538V42.8338C35.9057 43.0258 35.7137 43.1538 35.3937 43.2178V43.1218C35.3297 43.3778 35.2977 43.7298 35.2977 44.1778C35.2977 44.4978 35.4257 44.7218 35.6817 44.8498C35.8737 44.9138 35.9697 45.1058 35.9697 45.4258C35.9057 45.4898 35.8737 45.5538 35.8737 45.6178C35.8737 45.6178 35.8097 45.6498 35.6817 45.7138C35.4257 45.7778 35.3617 45.8738 35.4897 46.0018C35.6817 46.1938 35.7777 46.3218 35.7777 46.3858C36.0337 46.7698 36.0657 47.1218 35.8737 47.4418L35.5857 48.0178C35.5217 48.2738 35.5537 48.4978 35.6817 48.6898C35.8097 48.8178 35.8737 48.8818 35.8737 48.8818L36.1617 49.2658C36.1617 49.3298 36.0657 49.4578 35.8737 49.6498C35.7457 49.7778 35.6817 49.8738 35.6817 49.9378V51.9538C35.7457 52.0178 35.7777 52.1138 35.7777 52.2418C35.8417 52.3698 35.9057 52.4978 35.9697 52.6258C36.1617 52.9458 36.3217 53.2978 36.4497 53.6818C36.5777 54.0018 36.6417 54.3538 36.6417 54.7378C36.6417 54.8658 36.6097 54.9618 36.5457 55.0258C36.5457 55.0258 36.4817 55.0898 36.3537 55.2178L36.2577 55.1218C36.1937 54.9938 36.1617 54.8658 36.1617 54.7378C36.1617 54.6098 36.1297 54.5138 36.0657 54.4498C35.9377 55.0898 35.9697 55.6018 36.1617 55.9858C36.1617 56.0498 36.1937 56.1138 36.2577 56.1778C36.3217 56.1778 36.3857 56.2098 36.4497 56.2738C36.5777 56.4018 36.6417 56.4978 36.6417 56.5618C36.7057 56.6898 36.7377 56.8498 36.7377 57.0418C36.7377 57.6178 36.8337 58.0978 37.0257 58.4818C37.2177 59.0578 37.3137 59.6018 37.3137 60.1138C37.3137 60.2418 37.3137 60.4018 37.3137 60.5938C37.3777 60.7218 37.4097 60.8498 37.4097 60.9778C37.4097 61.1058 37.3457 61.2338 37.2177 61.3618C37.0897 61.6178 36.9297 61.6818 36.7377 61.5538C36.5457 61.5538 36.4497 61.4578 36.4497 61.2658V60.9778C36.2577 61.1698 36.0977 61.4578 35.9697 61.8418C35.9057 61.9058 35.8737 62.0018 35.8737 62.1298C35.8737 62.1938 35.8417 62.2898 35.7777 62.4178C35.7137 62.6738 35.4897 62.8658 35.1057 62.9938H34.5297C34.4657 63.0578 34.4017 63.0898 34.3377 63.0898C34.2737 63.0898 34.1777 63.1538 34.0497 63.2818C33.9857 63.2818 33.9217 63.3138 33.8577 63.3778C33.8577 63.3778 33.8257 63.3778 33.7617 63.3778C33.4417 63.3778 33.2177 63.4418 33.0897 63.5698H32.8977ZM36.7377 60.9778C36.6737 60.8498 36.6097 60.8178 36.5457 60.8818C36.5457 60.9458 36.5137 60.9778 36.4497 60.9778H36.7377Z" fill="white"/>
<path d="M160.044 63.5698C159.596 63.5058 159.116 63.4738 158.604 63.4738C158.092 63.4098 157.58 63.2498 157.068 62.9938C156.812 62.8658 156.62 62.8018 156.492 62.8018C155.98 62.6098 155.628 62.2578 155.436 61.7458V61.4578C154.924 60.3698 154.732 59.2498 154.86 58.0978C154.86 57.9058 154.86 57.7138 154.86 57.5218C154.86 57.3298 154.828 57.1378 154.764 56.9458C154.7 56.4978 154.636 56.0498 154.572 55.6018C154.572 55.1538 154.572 54.7058 154.572 54.2578C154.572 54.0018 154.54 53.7778 154.476 53.5858C154.476 53.3298 154.476 53.0738 154.476 52.8178C154.412 52.5618 154.38 52.3378 154.38 52.1458C154.38 51.9538 154.38 51.7618 154.38 51.5698C154.38 50.8658 154.38 50.1938 154.38 49.5538C154.38 48.9138 154.316 48.2738 154.188 47.6338C154.124 47.4418 154.092 47.2818 154.092 47.1538C154.156 46.9618 154.156 46.7698 154.092 46.5778C154.092 46.1938 154.092 45.8098 154.092 45.4258C154.092 45.0418 154.028 44.6578 153.9 44.2738C153.836 44.0818 153.804 43.8898 153.804 43.6978C153.868 43.4418 153.868 43.2178 153.804 43.0258L153.708 42.3538C153.58 42.0338 153.388 41.8738 153.132 41.8738C152.812 41.8098 152.46 41.7778 152.076 41.7778C151.756 41.7138 151.404 41.7138 151.02 41.7778C150.636 41.8418 150.22 41.9058 149.772 41.9698C149.388 41.9698 149.004 41.9698 148.62 41.9698C147.98 41.9698 147.372 41.9698 146.796 41.9698C146.22 41.9698 145.612 42.0338 144.972 42.1618H144.492C143.916 42.1618 143.34 42.2258 142.764 42.3538C142.188 42.4178 141.612 42.5138 141.036 42.6418C140.652 42.6418 140.332 42.6738 140.076 42.7378C139.18 42.8658 138.348 43.1538 137.58 43.6018C137.324 43.7298 137.068 43.8898 136.812 44.0818C136.556 44.2738 136.268 44.4338 135.948 44.5618C135.628 44.7538 135.404 45.0738 135.276 45.5218C135.212 45.8418 135.116 46.1938 134.988 46.5778C134.924 46.8978 134.892 47.2498 134.892 47.6338C134.892 48.1458 134.7 48.6578 134.316 49.1698C134.06 49.6178 133.644 49.8418 133.068 49.8418C132.492 49.8418 132.044 49.6178 131.724 49.1698C131.468 48.9138 131.276 48.5618 131.148 48.1138C131.02 47.4738 130.892 46.9298 130.764 46.4818L130.476 45.0418C130.284 44.5938 130.06 44.1458 129.804 43.6978L129.228 42.8338C128.46 41.5538 128.076 40.2098 128.076 38.8018C128.076 38.4178 128.172 38.0338 128.364 37.6498L128.652 36.7858C128.78 36.4658 128.876 36.1458 128.94 35.8258C129.004 35.4418 129.068 35.0898 129.132 34.7698C129.26 33.6178 129.452 32.4658 129.708 31.3138C129.964 30.0978 130.252 28.8818 130.572 27.6658C130.892 26.4498 131.212 25.2338 131.532 24.0178C131.724 23.3778 131.916 22.7698 132.108 22.1938C132.3 21.5538 132.46 20.9138 132.588 20.2738C132.844 19.2498 133.1 18.2578 133.356 17.2978C133.612 16.3378 133.868 15.3458 134.124 14.3218C134.124 14.1938 134.188 14.0018 134.316 13.7458C134.636 12.9778 134.924 12.2098 135.18 11.4418C135.5 10.6098 135.852 9.84181 136.236 9.13781L136.524 8.56181C136.588 8.30581 136.684 8.08181 136.812 7.88981C136.94 7.69781 137.068 7.47381 137.196 7.21781C137.452 6.89781 137.74 6.64181 138.06 6.44981C138.38 6.19381 138.7 6.00181 139.02 5.87381C139.468 5.68181 139.884 5.55381 140.268 5.48981C140.716 5.42581 141.164 5.36181 141.612 5.29781C141.996 5.23381 142.38 5.26581 142.764 5.39381C143.148 5.52181 143.5 5.68181 143.82 5.87381C144.268 6.06581 144.684 6.35381 145.068 6.73781C146.092 7.76181 146.508 8.97781 146.316 10.3858C146.188 11.5378 145.868 12.6258 145.356 13.6498C145.1 14.2258 144.844 14.8338 144.588 15.4738C144.396 16.0498 144.204 16.6578 144.012 17.2978C143.884 17.8098 143.724 18.3218 143.532 18.8338C143.404 19.3458 143.244 19.8578 143.052 20.3698C142.988 20.5618 142.924 20.7538 142.86 20.9458C142.796 21.0738 142.732 21.2338 142.668 21.4258C142.604 21.5538 142.508 21.6818 142.38 21.8098C142.316 21.9378 142.22 22.0658 142.092 22.1938C141.772 22.5138 141.548 22.9618 141.42 23.5378C141.356 23.7938 141.292 24.0498 141.228 24.3058C141.164 24.5618 141.068 24.8498 140.94 25.1698C140.812 25.5538 140.748 25.8418 140.748 26.0338C140.812 26.3538 140.716 26.6418 140.46 26.8978C140.076 27.4098 139.82 28.0178 139.692 28.7218C139.628 29.1058 139.532 29.4898 139.404 29.8738C139.276 30.2578 139.148 30.6098 139.02 30.9298L138.54 33.4258C138.54 33.4898 138.604 33.5858 138.732 33.7138H139.116C139.5 33.7138 139.852 33.7138 140.172 33.7138C140.556 33.7138 140.908 33.6818 141.228 33.6178C141.612 33.6178 141.996 33.6178 142.38 33.6178C142.764 33.5538 143.18 33.5218 143.628 33.5218C144.14 33.4578 144.684 33.4258 145.26 33.4258C145.836 33.4258 146.38 33.3938 146.892 33.3298C147.084 33.2658 147.276 33.2338 147.468 33.2338C147.66 33.2338 147.852 33.2338 148.044 33.2338C148.492 33.2338 148.94 33.2338 149.388 33.2338C149.836 33.2338 150.284 33.2658 150.732 33.3298C150.924 33.3298 151.116 33.3298 151.308 33.3298C151.564 33.3298 151.788 33.3618 151.98 33.4258H153.132C153.388 33.4258 153.516 33.2978 153.516 33.0418C153.516 32.9138 153.516 32.8178 153.516 32.7538C153.58 32.6898 153.612 32.6258 153.612 32.5618V26.6098C153.612 26.4178 153.612 26.2578 153.612 26.1298C153.676 25.9378 153.708 25.7778 153.708 25.6498C153.772 25.3298 153.804 25.0418 153.804 24.7858C153.804 24.4658 153.804 24.1778 153.804 23.9218C153.74 23.6018 153.708 23.3138 153.708 23.0578C153.772 22.8018 153.804 22.5458 153.804 22.2898C153.804 21.2018 153.836 20.0818 153.9 18.9298C153.964 17.7778 154.028 16.6578 154.092 15.5698C154.22 14.7378 154.316 13.9058 154.38 13.0738C154.508 12.2418 154.668 11.4098 154.86 10.5778C154.988 10.0658 155.084 9.58581 155.148 9.13781C155.276 8.62581 155.404 8.14581 155.532 7.69781C155.724 7.12181 155.98 6.48181 156.3 5.77781C156.492 5.32981 156.748 4.97781 157.068 4.72181C157.388 4.40181 157.708 4.11381 158.028 3.85781C158.156 3.85781 158.252 3.85781 158.316 3.85781C158.38 3.79381 158.444 3.76181 158.508 3.76181C158.636 3.69781 158.764 3.66581 158.892 3.66581C159.02 3.60181 159.116 3.53781 159.18 3.47381C159.628 3.28181 160.044 3.21781 160.428 3.28181L162.252 3.56981L162.54 3.85781C162.54 3.92181 162.54 3.98581 162.54 4.04981C162.604 4.04981 162.636 4.08181 162.636 4.14581C162.764 4.40181 162.86 4.65781 162.924 4.91381C163.052 5.10581 163.18 5.29781 163.308 5.48981C163.692 6.06581 163.852 6.70581 163.788 7.40981V7.50581C163.724 7.88981 163.852 8.20981 164.172 8.46581C164.556 8.72181 164.684 9.07381 164.556 9.52181V9.71381C164.428 10.1618 164.3 10.6098 164.172 11.0578C164.044 11.5058 163.916 11.9538 163.788 12.4018C163.788 12.5298 163.66 12.5618 163.404 12.4978C163.34 12.4978 163.308 12.4978 163.308 12.4978C163.308 12.4338 163.276 12.4018 163.212 12.4018C162.956 12.4018 162.892 12.4658 163.02 12.5938L163.212 12.8818C163.34 13.2018 163.276 13.4258 163.02 13.5538C162.956 13.5538 162.892 13.5858 162.828 13.6498C162.764 13.7138 162.732 13.7778 162.732 13.8418C162.732 14.0978 162.732 14.3538 162.732 14.6098C162.732 14.8658 162.7 15.1538 162.636 15.4738C162.636 15.5378 162.636 15.6018 162.636 15.6658C162.7 15.6658 162.732 15.6658 162.732 15.6658L163.02 15.9538C163.148 16.2738 163.084 16.5298 162.828 16.7218C162.572 16.7858 162.444 16.9458 162.444 17.2018C162.444 17.6498 162.412 18.1618 162.348 18.7378C162.348 19.2498 162.348 19.7618 162.348 20.2738V23.7298C162.348 23.9858 162.316 24.2738 162.252 24.5938C162.252 24.9138 162.22 25.2338 162.156 25.5538C162.156 25.8098 162.188 26.0978 162.252 26.4178C162.316 26.6738 162.348 26.9618 162.348 27.2818C162.348 27.4738 162.316 27.6658 162.252 27.8578C162.252 27.9858 162.252 28.1458 162.252 28.3378C162.188 28.5938 162.124 28.8818 162.06 29.2018C162.06 29.4578 162.06 29.7458 162.06 30.0658C162.124 30.4498 162.156 30.8338 162.156 31.2178C162.156 31.6018 162.156 31.9538 162.156 32.2738V33.0418C162.284 33.2978 162.412 33.4578 162.54 33.5218C162.668 33.5218 162.764 33.5538 162.828 33.6178C162.892 33.6178 162.956 33.6178 163.02 33.6178C163.148 33.6178 163.276 33.6498 163.404 33.7138C163.596 33.7138 163.756 33.6818 163.884 33.6178C164.396 33.6178 164.844 33.6178 165.228 33.6178C165.676 33.6178 166.124 33.5858 166.572 33.5218H169.356C170.38 33.5218 171.308 33.3938 172.14 33.1378L173.868 32.8498H174.444C174.892 32.9778 175.308 33.1378 175.692 33.3298C176.076 33.5218 176.396 33.8098 176.652 34.1938C176.78 34.3218 176.844 34.4178 176.844 34.4818C176.972 34.8658 177.132 35.2178 177.324 35.5378C177.516 35.8578 177.644 36.2098 177.708 36.5938C177.836 36.8498 177.9 36.9778 177.9 36.9778C178.092 37.3618 178.06 37.8418 177.804 38.4178C177.804 38.4818 177.772 38.5458 177.708 38.6098C177.708 38.6738 177.708 38.7698 177.708 38.8978C177.644 39.0898 177.708 39.2498 177.9 39.3778C178.028 39.4418 178.124 39.4738 178.188 39.4738C178.316 39.4738 178.412 39.5058 178.476 39.5698C178.604 39.5698 178.668 39.6338 178.668 39.7618C178.668 39.8258 178.636 39.8898 178.572 39.9538C178.38 40.1458 178.092 40.3698 177.708 40.6258C177.708 40.6898 177.676 40.7218 177.612 40.7218C177.548 40.7218 177.516 40.6898 177.516 40.6258C177.452 40.6258 177.356 40.5618 177.228 40.4338C176.972 40.4338 176.812 40.4658 176.748 40.5298L176.46 40.8178C176.268 41.3298 175.884 41.6818 175.308 41.8738C174.924 42.1298 174.508 42.2898 174.06 42.3538C173.612 42.3538 173.164 42.3218 172.716 42.2578C172.012 42.0658 171.276 41.9698 170.508 41.9698C169.74 41.9698 169.004 41.9698 168.3 41.9698C167.916 41.9058 167.532 41.8738 167.148 41.8738C166.764 41.8738 166.412 41.8418 166.092 41.7778C165.9 41.7138 165.708 41.7138 165.516 41.7778C165.324 41.7778 165.132 41.7778 164.94 41.7778C164.748 41.8418 164.524 41.8738 164.268 41.8738C164.076 41.8738 163.852 41.8738 163.596 41.8738C163.34 41.8738 163.18 42.0338 163.116 42.3538V42.8338C163.052 43.0258 162.86 43.1538 162.54 43.2178V43.1218C162.476 43.3778 162.444 43.7298 162.444 44.1778C162.444 44.4978 162.572 44.7218 162.828 44.8498C163.02 44.9138 163.116 45.1058 163.116 45.4258C163.052 45.4898 163.02 45.5538 163.02 45.6178C163.02 45.6178 162.956 45.6498 162.828 45.7138C162.572 45.7778 162.508 45.8738 162.636 46.0018C162.828 46.1938 162.924 46.3218 162.924 46.3858C163.18 46.7698 163.212 47.1218 163.02 47.4418L162.732 48.0178C162.668 48.2738 162.7 48.4978 162.828 48.6898C162.956 48.8178 163.02 48.8818 163.02 48.8818L163.308 49.2658C163.308 49.3298 163.212 49.4578 163.02 49.6498C162.892 49.7778 162.828 49.8738 162.828 49.9378V51.9538C162.892 52.0178 162.924 52.1138 162.924 52.2418C162.988 52.3698 163.052 52.4978 163.116 52.6258C163.308 52.9458 163.468 53.2978 163.596 53.6818C163.724 54.0018 163.788 54.3538 163.788 54.7378C163.788 54.8658 163.756 54.9618 163.692 55.0258C163.692 55.0258 163.628 55.0898 163.5 55.2178L163.404 55.1218C163.34 54.9938 163.308 54.8658 163.308 54.7378C163.308 54.6098 163.276 54.5138 163.212 54.4498C163.084 55.0898 163.116 55.6018 163.308 55.9858C163.308 56.0498 163.34 56.1138 163.404 56.1778C163.468 56.1778 163.532 56.2098 163.596 56.2738C163.724 56.4018 163.788 56.4978 163.788 56.5618C163.852 56.6898 163.884 56.8498 163.884 57.0418C163.884 57.6178 163.98 58.0978 164.172 58.4818C164.364 59.0578 164.46 59.6018 164.46 60.1138C164.46 60.2418 164.46 60.4018 164.46 60.5938C164.524 60.7218 164.556 60.8498 164.556 60.9778C164.556 61.1058 164.492 61.2338 164.364 61.3618C164.236 61.6178 164.076 61.6818 163.884 61.5538C163.692 61.5538 163.596 61.4578 163.596 61.2658V60.9778C163.404 61.1698 163.244 61.4578 163.116 61.8418C163.052 61.9058 163.02 62.0018 163.02 62.1298C163.02 62.1938 162.988 62.2898 162.924 62.4178C162.86 62.6738 162.636 62.8658 162.252 62.9938H161.676C161.612 63.0578 161.548 63.0898 161.484 63.0898C161.42 63.0898 161.324 63.1538 161.196 63.2818C161.132 63.2818 161.068 63.3138 161.004 63.3778C161.004 63.3778 160.972 63.3778 160.908 63.3778C160.588 63.3778 160.364 63.4418 160.236 63.5698H160.044ZM163.884 60.9778C163.82 60.8498 163.756 60.8178 163.692 60.8818C163.692 60.9458 163.66 60.9778 163.596 60.9778H163.884Z" fill="white"/>
<circle cx="89.7988" cy="33.2104" r="32.8369" fill="white"/>
<path fill-rule="evenodd" clip-rule="evenodd" d="M99.5444 18.3152C99.5444 20.2243 93.6873 21.772 86.4622 21.772C79.2371 21.772 73.38 20.2243 73.38 18.3152C73.38 16.4061 79.2371 14.8584 86.4622 14.8584C93.6873 14.8584 99.5444 16.4061 99.5444 18.3152ZM96.2904 18.9569C96.9826 18.355 95.668 17.1002 95.5065 17.1359C97.1187 19.8268 86.0922 20.6466 84.517 20.743C91.8626 21.0645 95.6855 19.8121 96.2904 18.9569Z" fill="#5C2B94"/>
<path d="M71.7528 20.1036C69.8053 20.6209 66.7517 21.9825 67.3274 24.065C68.2828 27.5217 74.9292 28.4905 75.4645 28.5262C75.1552 28.4548 74.5723 27.9766 74.715 26.6347C72.764 26.4325 69.0401 24.9971 69.1161 23.1171C69.1621 21.9813 70.6969 20.9137 71.4237 20.4081C71.721 20.2014 71.8831 20.0886 71.7528 20.1036Z" fill="#5C2B94"/>
<path d="M73.0663 23.163V19.106C73.7428 19.8549 75.5719 21.4767 77.476 21.9724C77.9995 22.119 78.3309 22.1264 78.666 22.1338C79.0366 22.1421 79.4116 22.1504 80.0557 22.3473C80.7215 22.5507 81.7176 23.0768 81.6314 24.0143C81.5451 24.9518 80.9577 25.2587 80.5388 25.391C80.2361 25.4866 79.6368 25.3238 79.3722 24.8388C79.1606 24.4507 78.8578 24.2802 78.7328 24.2434C78.527 24.1552 78.0713 24.1852 77.895 24.6262C77.7186 25.0671 77.8215 25.4929 77.895 25.6987C78.1816 26.316 78.7505 27.6037 78.7328 27.8153C78.7108 28.0799 78.4462 28.4548 78.1154 28.4989C77.7847 28.543 76.9248 28.4548 76.6602 28.2784C76.3956 28.102 76.2193 27.8374 76.3736 27.1318C76.4971 26.5674 76.8807 25.6913 77.0571 25.3238C77.1894 25.0005 77.3746 24.2346 77.0571 23.7584C76.7396 23.2821 75.8665 23.6334 75.4696 23.8686C75.3447 23.9789 74.914 24.2302 74.1908 24.3537C73.4676 24.4772 73.1398 23.6113 73.0663 23.163Z" fill="#5C2B94"/>
<path d="M66.9525 24.2545C66.7626 24.451 66.4496 25.0993 66.7168 26.1212C66.8564 26.6548 67.1674 27.3702 67.5239 28.1901C68.0206 29.3325 68.6055 30.6776 68.9372 32.0161C69.4998 34.2858 70.4837 39.141 70.452 40.2287L70.4502 40.269C70.451 40.2562 70.4516 40.2428 70.452 40.2287C70.5683 37.5109 70.5795 31.5321 69.7036 29.0294C69.5595 28.787 69.3577 28.3259 69.7036 28.4202C69.7424 28.4308 69.7868 28.4419 69.8359 28.4541C70.3333 28.5781 71.3142 28.8227 71.9043 29.9136C72.5528 31.1122 72.7296 31.8196 72.6903 32.9397C72.6314 33.2213 72.5017 33.8632 72.4545 34.1776C72.4363 34.2989 72.4088 34.3996 72.3805 34.5029C72.3172 34.7341 72.2505 34.978 72.2777 35.4941C72.317 36.2408 72.651 36.9089 73.6532 36.791C74.6553 36.6731 75.0286 36.1622 75.1072 35.4941C75.1701 34.9597 74.3343 33.8697 73.9086 33.3916C73.7449 33.1558 73.4409 32.5231 73.5353 31.8786C73.6532 31.0729 74.8125 29.8153 76.2862 29.7564C77.4652 29.7092 77.8778 30.1297 77.9368 30.3459C78.6114 31.2956 80.2201 33.2148 81.2576 33.2934C82.5545 33.3916 83.3405 33.2148 83.9103 32.9397C84.4802 32.6646 89.7887 30.1986 91.0568 30.894C91.3568 30.9533 91.9608 31.2939 91.9772 32.1826C91.9936 33.0712 91.8749 33.8828 91.8136 34.1776C91.7249 34.4671 91.6009 35.1811 91.8136 35.7211L91.8322 35.7686C92.0963 36.4411 92.4642 37.3783 94.0226 37.3983C95.618 37.4187 95.7611 35.7376 95.7202 35.4941C95.7177 35.4793 95.7153 35.4628 95.7127 35.4446C95.6716 35.1629 95.5719 34.4789 94.2271 33.6143C93.9544 33.4575 93.4212 32.9803 93.4703 32.3257C93.5194 31.6712 94.1317 31.0985 94.4316 30.894C94.5748 30.8122 95.3112 30.7631 97.1111 31.2212C98.911 31.6794 99.5383 32.1485 99.6269 32.3257C99.8314 32.428 100.2 32.7307 100.036 33.1234C99.8723 33.5162 99.2996 34.5143 99.0337 34.9643C98.6724 35.4961 97.9374 36.6988 97.8883 37.2551C97.879 37.3611 97.8672 37.4658 97.8557 37.5683C97.7918 38.1382 97.7351 38.6439 98.1338 38.9732C98.6042 39.3618 99.4428 39.6686 100.036 39.3209C100.413 39.0996 100.526 37.4036 100.632 35.8095C100.692 34.8989 100.75 34.0214 100.854 33.4712C101.083 32.2603 101.85 30.6349 102.204 29.9736C102.02 32.0462 101.615 36.4329 101.468 37.3983C101.32 38.3637 100.997 40.6777 100.854 41.714C101.25 41.1958 102.261 38.7523 103.145 33.1234L104.679 25.2079C103.69 26.1351 100.031 28.207 93.0606 29.3688C84.3473 30.821 68.5269 30.4948 66.9525 24.2545Z" fill="#5C2B94"/>
<path d="M84.6192 33.632H82.6937V35.5062H84.6192V33.632Z" fill="#5C2B94"/>
<path d="M84.6192 36.2588H82.6937V38.133H84.6192V36.2588Z" fill="#5C2B94"/>
<path d="M85.5694 33.632H87.4949V35.5062H85.5694V33.632Z" fill="#5C2B94"/>
<path d="M87.4949 36.2588H85.5694V38.133H87.4949V36.2588Z" fill="#5C2B94"/>
<path d="M99.71 19.3513V23.866C99.6076 23.3849 99.0958 22.5208 97.8673 22.9139C96.6388 23.307 96.864 24.2448 97.1302 24.6645C97.2531 24.8181 97.4619 25.2849 97.3145 25.9237C97.1302 26.7222 96.3624 27.0294 95.9939 27.0601C95.6253 27.0908 95.1032 26.7222 95.3489 25.9237C95.5946 25.1252 95.7564 24.356 95.6427 23.9499C95.529 23.5438 94.9604 23.1214 94.4081 23.2839C93.8558 23.4463 93.6771 23.8687 93.7258 24.3398C93.7745 24.8109 93.8882 25.282 94.3268 25.6556C94.7654 26.0292 95.0741 27.1664 94.9604 27.7025C94.8467 28.2386 94.6893 28.9111 93.7258 28.9111H93.7104C92.8873 28.9111 92.0854 28.9112 92.15 27.3613C92.1852 26.5153 92.4261 25.9848 92.6261 25.5442C92.7948 25.1727 92.9344 24.865 92.8973 24.486C92.8304 23.8035 92.6752 23.7383 92.3684 23.6094C92.3028 23.5819 92.2302 23.5514 92.15 23.5113C91.6952 23.2839 90.7692 23.6088 90.5743 24.0474C90.3793 24.486 89.0147 25.5257 88.1212 25.6556C87.2278 25.7856 85.9444 25.2332 85.6682 24.8596C85.3921 24.486 84.6605 23.8148 83.9171 24.486C83.3224 25.023 83.9905 26.332 84.3989 26.9194C84.6376 27.259 85.0653 28.0538 84.867 28.5163C84.6192 29.0946 84.0135 29.2322 83.5041 29.2185C82.9947 29.2047 82.1962 29.0395 82.21 28.1171C82.2173 27.6287 82.4175 26.9491 82.6146 26.2802C82.7897 25.6858 82.9623 25.0999 82.9947 24.6645C83.0051 24.5252 83.0111 24.3944 83.0167 24.2717C83.0484 23.58 83.0682 23.1484 83.7932 22.9139C84.4761 22.6931 86.4365 22.6562 87.3313 22.6654C89.5603 22.5629 94.3658 22.2734 95.7563 21.9355C97.4945 21.5132 99.4725 20.3084 99.71 19.3513Z" fill="#5C2B94"/>
<path d="M102.721 20.4673C101.705 19.8286 100.754 19.6938 100.255 19.7882C101.214 20.0567 102.144 21.3265 102.193 22.7755C102.273 25.1805 98.9613 26.8596 98.3591 27.146C98.7462 27.2393 101.829 25.67 103.113 24.7882C104.397 23.9065 104.532 22.9288 104.474 22.5455C104.416 22.1621 103.856 21.1799 102.721 20.4673Z" fill="#5C2B94"/>
<path d="M105.114 18.7668C105.27 18.0733 106.096 17.8202 106.489 17.7803C106.558 17.8762 106.421 17.9199 106.22 17.9655C106.02 18.011 105.297 18.2465 105.335 18.93C105.367 19.5074 106.424 19.7922 106.869 19.9121C106.95 19.9342 107.012 19.9507 107.042 19.9624L107.055 19.9674C107.261 20.0464 107.78 20.2458 107.372 20.8219C106.956 21.4106 106.788 22.3296 107.042 22.7316C107.277 23.1038 107.544 22.9592 108.221 22.594L108.223 22.5927C108.277 22.5637 108.333 22.5334 108.392 22.5019C109.196 22.0711 110.287 22.5162 109.971 22.5019C109.718 22.4904 109.518 22.7172 109.449 22.832C109.126 22.6343 108.704 22.8377 108.275 23.0448C107.73 23.3074 107.173 23.576 106.788 23.0413C106.135 22.1323 106.85 20.9954 107.091 20.6115C107.104 20.5914 107.115 20.5734 107.125 20.5576C107.261 20.3379 106.888 20.2181 106.384 20.0564C106.292 20.0268 106.195 19.9957 106.096 19.9624C105.599 19.7944 104.959 19.4603 105.114 18.7668Z" fill="#5C2B94"/>
<path fill-rule="evenodd" clip-rule="evenodd" d="M66.585 46.6755C64.6183 44.6213 65.8369 42.7441 66.8394 41.9011C66.8883 41.86 66.9517 41.9194 66.9205 41.9752C66.12 43.4052 66.4801 44.3167 66.8602 45.0049C66.9978 45.254 67.1574 45.4914 67.3531 45.6981C70.2922 48.8019 78.0703 49.8927 80.6938 50.095L80.8099 43.0768C81.9365 36.9341 89.9488 38.6476 89.9488 43.0768V50.2111C93.9976 49.9867 98.9533 48.9229 101.977 47.322C104.613 45.926 106.011 44.045 106.753 40.3646C109.17 49.3266 95.1963 51.6261 85.9984 51.5082C76.8005 51.3902 69.2382 49.4467 66.585 46.6755ZM88.8712 45.1337C88.8712 45.6405 88.4604 46.0514 87.9535 46.0514C87.4467 46.0514 87.0358 45.6405 87.0358 45.1337C87.0358 44.6269 87.4467 44.216 87.9535 44.216C88.4604 44.216 88.8712 44.6269 88.8712 45.1337Z" fill="#5C2B94"/>
<path d="M105.369 32.291C105.77 32.0122 106.972 30.9592 107.545 30.451L107.813 30.7881C107.813 30.7881 105.637 32.8153 105.413 32.9643C105.19 33.1132 104.668 33.5849 104.511 34.073C104.354 34.5612 104.685 35.1487 104.817 35.3307C104.921 35.473 105.358 36.3547 105.721 37.0874C105.822 37.2922 105.918 37.4853 105.999 37.6474C106.296 38.241 106.474 39.5936 106.526 40.1957H106.341C106.286 39.5835 106.137 39.1337 105.814 38.158L105.745 37.9501C105.448 37.0518 104.874 36.2094 104.624 35.9005C104.028 36.2047 103.439 36.2116 103.219 36.1771L103.276 35.9005C103.912 35.9558 104.294 35.6087 104.405 35.4282C103.334 33.8498 104.868 32.6395 105.369 32.291Z" fill="#5C2B94"/>
<path d="M108.367 33.0453C108.111 32.4969 108.05 31.4383 108.052 30.9776L108.547 31.236C108.551 31.7035 108.74 32.6595 108.833 33.0791L108.367 33.0453Z" fill="#5C2B94"/>
<path d="M103.713 44.2012L102.637 44.9189L102.86 45.1661L103.899 44.4239L103.713 44.2012Z" fill="#5C2B94"/>
<path d="M107.947 23.8998C108.195 23.1294 109.014 22.9367 109.392 22.9367C109.862 21.9163 111.364 22.8335 111.834 23.487C112.304 24.1405 112.396 25.7456 112.086 26.4679C111.839 27.0457 111.609 28.0233 111.525 28.4398C110.772 26.9448 109.476 26.8233 108.922 26.9494C108.108 26.3188 107.638 24.8628 107.947 23.8998Z" fill="url(#paint0_linear_212_239)"/>
<path d="M101.36 33.5273C100.789 33.7625 101.062 34.4084 101.271 34.6514C100.849 34.4339 99.9148 34.0315 99.4202 34.6514C98.9576 35.2313 99.1389 35.948 99.4202 36.5619C99.7016 37.1758 100.491 37.5162 101.028 37.836C101.458 38.0917 102.316 39.1021 102.691 39.5753C102.563 38.7056 103.131 36.976 103.284 36.0808C103.438 35.1856 103.202 34.4341 102.819 33.9225C102.435 33.4109 101.919 33.2973 101.36 33.5273Z" fill="url(#paint1_linear_212_239)"/>
<path d="M106.36 40.1089C105.449 40.109 105.195 40.3713 105.39 40.9398C104.699 40.5082 103.966 40.6483 103.491 41.3712C102.92 42.2413 103.21 43.2058 103.491 43.8199C103.905 44.7255 105.176 45.126 105.777 45.2977C106.532 45.5134 109.035 46.7324 109.739 47.244C109.611 46.3744 108.996 46.7148 109.372 42.5738C109.454 41.6692 109.046 40.8857 108.227 40.5082C107.646 40.2407 107.051 40.1088 106.36 40.1089Z" fill="url(#paint2_linear_212_239)"/>
<path d="M100.327 46.2132C100.327 46.8505 100.536 46.9639 100.694 46.9253C100.687 46.5391 100.69 45.6923 100.911 45.2505C101.187 44.6982 101.42 44.4929 101.753 44.4716C102.086 44.4504 102.971 44.6557 103.53 46.0434C104.09 47.4312 103.529 48.73 103.181 49.2655C102.832 49.8009 101.97 50.5863 101.555 50.9075C101.14 51.2288 100.477 51.4875 99.8341 52.0631C99.1916 52.6387 99.0794 52.6441 98.8678 53.1032C98.7042 52.9578 97.541 50.6859 97.2139 50.0134C96.8867 49.341 96.52 47.6736 96.6162 46.52C96.7123 45.3664 97.5679 44.3473 98.2985 44.0205C99.0292 43.6936 99.7149 43.7275 100.196 44.1601C100.654 44.5729 100.327 45.7318 100.327 46.2132Z" fill="url(#paint3_linear_212_239)"/>
<path d="M110.12 40.1322C110.325 40.4701 110.666 41.0238 110.811 41.2584C110.953 40.7645 111.327 39.7823 111.502 39.2788C111.677 38.7754 111.633 38.3595 113.034 39.5196C114.435 40.6797 114.238 43.6348 113.428 45.2108C112.78 46.4716 112.195 48.3775 111.983 49.1728C111.861 48.5424 110.374 46.5463 109.646 45.6271C109.653 45.2691 109.678 44.4918 109.721 44.2466C109.774 43.9402 109.97 41.9608 109.49 41.1857C109.107 40.5655 108.654 40.3025 108.476 40.2484C108.546 39.9525 109.025 39.5226 109.406 39.3887C109.786 39.2548 109.864 39.7098 110.12 40.1322Z" fill="url(#paint4_linear_212_239)"/>
<path d="M107.924 33.1845C108.589 32.6178 109.621 33.5778 110.053 34.1286C109.91 33.8559 109.261 32.2779 110.053 32.5019C110.846 32.7259 111.457 33.2735 111.951 33.7902C112.428 34.2895 112.778 35.1197 112.705 35.8137C112.632 36.5077 111.731 37.5548 111.366 38.127C111.074 38.5848 110.871 39.3973 110.806 39.7464C110.148 39.2553 108.894 38.3424 108.395 37.7739C107.957 37.2747 107.506 36.2678 107.372 35.4836L107.369 35.4678C107.236 34.6886 107.099 33.8881 107.924 33.1845Z" fill="url(#paint5_linear_212_239)"/>
<path d="M107.146 27.5718C107.746 27.0514 108.249 27.659 108.426 28.0278C108.426 27.8538 108.549 27.4762 109.04 27.3576C109.654 27.2094 110.761 27.8846 111.131 28.4939C111.502 29.1032 111.485 30.3548 111.527 31.0464C111.56 31.5997 111.859 32.6493 112.004 33.1049C111.593 32.7673 110.662 32.2568 110.217 32.0427C109.773 31.8286 108.949 31.631 107.895 30.9394C106.842 30.2477 106.397 28.2222 107.146 27.5718Z" fill="url(#paint6_linear_212_239)"/>
<defs>
<linearGradient id="paint0_linear_212_239" x1="107.852" y1="24.4845" x2="112.267" y2="24.4845" gradientUnits="userSpaceOnUse">
<stop stop-color="#8D6198"/>
<stop offset="0.27" stop-color="#95AA69"/>
<stop offset="0.513121" stop-color="#98C954"/>
<stop offset="1" stop-color="#9ACC53"/>
</linearGradient>
<linearGradient id="paint1_linear_212_239" x1="98.6883" y1="35.5238" x2="103.332" y2="35.5238" gradientUnits="userSpaceOnUse">
<stop stop-color="#6D419F"/>
<stop offset="0.37689" stop-color="#9ACC53"/>
</linearGradient>
<linearGradient id="paint2_linear_212_239" x1="102.626" y1="42.5248" x2="107.753" y2="42.5248" gradientUnits="userSpaceOnUse">
<stop stop-color="#6D419F"/>
<stop offset="0.484891" stop-color="#9ACC53"/>
<stop offset="0.95" stop-color="#9ACC53"/>
</linearGradient>
<linearGradient id="paint3_linear_212_239" x1="96.2525" y1="47.2695" x2="104.114" y2="47.2695" gradientUnits="userSpaceOnUse">
<stop stop-color="#846292"/>
<stop offset="0.2" stop-color="#8E9672"/>
<stop offset="0.465" stop-color="#9ACC53"/>
<stop offset="1" stop-color="#9ACC52"/>
</linearGradient>
<linearGradient id="paint4_linear_212_239" x1="108.476" y1="40.1982" x2="114.062" y2="40.1982" gradientUnits="userSpaceOnUse">
<stop stop-color="#8E6894"/>
<stop offset="0.201605" stop-color="#9ACC53"/>
<stop offset="0.94892" stop-color="#9ACC53"/>
</linearGradient>
<linearGradient id="paint5_linear_212_239" x1="107.148" y1="35.5015" x2="112.715" y2="35.3324" gradientUnits="userSpaceOnUse">
<stop stop-color="#8D6198"/>
<stop offset="0.290036" stop-color="#94AD67"/>
<stop offset="0.563285" stop-color="#9ACC52"/>
<stop offset="1" stop-color="#9ACC53"/>
</linearGradient>
<linearGradient id="paint6_linear_212_239" x1="106.414" y1="28.8025" x2="112.004" y2="28.8025" gradientUnits="userSpaceOnUse">
<stop stop-color="#8B569F"/>
<stop offset="0.29" stop-color="#939577"/>
<stop offset="1" stop-color="#9ACC53"/>
</linearGradient>
</defs>
</svg>
