<svg width="179" height="66" viewBox="0 0 179 66" fill="none" xmlns="http://www.w3.org/2000/svg">
<path d="M32.8977 63.1963C32.4497 63.1323 31.9697 63.1003 31.4577 63.1003C30.9457 63.0363 30.4337 62.8763 29.9217 62.6203C29.6657 62.4923 29.4737 62.4283 29.3457 62.4283C28.8337 62.2363 28.4817 61.8843 28.2897 61.3723V61.0843C27.7777 59.9963 27.5857 58.8763 27.7137 57.7243C27.7137 57.5323 27.7137 57.3403 27.7137 57.1483C27.7137 56.9563 27.6817 56.7643 27.6177 56.5723C27.5537 56.1243 27.4897 55.6763 27.4257 55.2283C27.4257 54.7803 27.4257 54.3323 27.4257 53.8843C27.4257 53.6283 27.3937 53.4043 27.3297 53.2123C27.3297 52.9563 27.3297 52.7003 27.3297 52.4443C27.2657 52.1883 27.2337 51.9643 27.2337 51.7723C27.2337 51.5803 27.2337 51.3883 27.2337 51.1963C27.2337 50.4923 27.2337 49.8203 27.2337 49.1803C27.2337 48.5403 27.1697 47.9003 27.0417 47.2603C26.9777 47.0683 26.9457 46.9083 26.9457 46.7803C27.0097 46.5883 27.0097 46.3963 26.9457 46.2043C26.9457 45.8203 26.9457 45.4363 26.9457 45.0523C26.9457 44.6683 26.8817 44.2843 26.7537 43.9003C26.6897 43.7083 26.6577 43.5163 26.6577 43.3243C26.7217 43.0683 26.7217 42.8443 26.6577 42.6523L26.5617 41.9803C26.4337 41.6603 26.2417 41.5003 25.9857 41.5003C25.6657 41.4363 25.3137 41.4043 24.9297 41.4043C24.6097 41.3403 24.2577 41.3403 23.8737 41.4043C23.4897 41.4683 23.0737 41.5323 22.6257 41.5963C22.2417 41.5963 21.8577 41.5963 21.4737 41.5963C20.8337 41.5963 20.2257 41.5963 19.6497 41.5963C19.0737 41.5963 18.4657 41.6603 17.8257 41.7883H17.3457C16.7697 41.7883 16.1937 41.8523 15.6177 41.9803C15.0417 42.0443 14.4657 42.1403 13.8897 42.2683C13.5057 42.2683 13.1857 42.3003 12.9297 42.3643C12.0337 42.4923 11.2017 42.7803 10.4337 43.2283C10.1777 43.3563 9.92169 43.5163 9.66569 43.7083C9.40969 43.9003 9.12169 44.0603 8.80169 44.1883C8.48169 44.3803 8.25769 44.7003 8.12969 45.1483C8.06569 45.4683 7.96969 45.8203 7.84169 46.2043C7.77769 46.5243 7.74569 46.8763 7.74569 47.2603C7.74569 47.7723 7.55369 48.2843 7.16969 48.7963C6.91369 49.2443 6.49769 49.4683 5.92169 49.4683C5.34569 49.4683 4.89769 49.2443 4.57769 48.7963C4.32169 48.5403 4.12969 48.1883 4.00169 47.7403C3.87369 47.1003 3.74569 46.5563 3.61769 46.1083L3.32969 44.6683C3.13769 44.2203 2.91369 43.7723 2.65769 43.3243L2.08169 42.4603C1.31369 41.1803 0.929688 39.8363 0.929688 38.4283C0.929688 38.0443 1.02569 37.6603 1.21769 37.2763L1.50569 36.4123C1.63369 36.0923 1.72969 35.7723 1.79369 35.4523C1.85769 35.0683 1.92169 34.7163 1.98569 34.3963C2.11369 33.2443 2.30569 32.0923 2.56169 30.9403C2.81769 29.7243 3.10569 28.5083 3.42569 27.2923C3.74569 26.0763 4.06569 24.8603 4.38569 23.6443C4.57769 23.0043 4.76969 22.3963 4.96169 21.8203C5.15369 21.1803 5.31369 20.5403 5.44169 19.9003C5.69769 18.8763 5.95369 17.8843 6.20969 16.9243C6.46569 15.9643 6.72169 14.9723 6.97769 13.9483C6.97769 13.8203 7.04169 13.6283 7.16969 13.3723C7.48969 12.6043 7.77769 11.8363 8.03369 11.0683C8.35369 10.2363 8.70569 9.46828 9.08969 8.76428L9.37769 8.18828C9.44169 7.93228 9.53769 7.70828 9.66569 7.51627C9.79369 7.32428 9.92169 7.10028 10.0497 6.84428C10.3057 6.52428 10.5937 6.26828 10.9137 6.07628C11.2337 5.82028 11.5537 5.62828 11.8737 5.50028C12.3217 5.30828 12.7377 5.18028 13.1217 5.11628C13.5697 5.05228 14.0177 4.98828 14.4657 4.92427C14.8497 4.86027 15.2337 4.89228 15.6177 5.02028C16.0017 5.14828 16.3537 5.30828 16.6737 5.50028C17.1217 5.69228 17.5377 5.98028 17.9217 6.36428C18.9457 7.38828 19.3617 8.60428 19.1697 10.0123C19.0417 11.1643 18.7217 12.2523 18.2097 13.2763C17.9537 13.8523 17.6977 14.4603 17.4417 15.1003C17.2497 15.6763 17.0577 16.2843 16.8657 16.9243C16.7377 17.4363 16.5777 17.9483 16.3857 18.4603C16.2577 18.9723 16.0977 19.4843 15.9057 19.9963C15.8417 20.1883 15.7777 20.3803 15.7137 20.5723C15.6497 20.7003 15.5857 20.8603 15.5217 21.0523C15.4577 21.1803 15.3617 21.3083 15.2337 21.4363C15.1697 21.5643 15.0737 21.6923 14.9457 21.8203C14.6257 22.1403 14.4017 22.5883 14.2737 23.1643C14.2097 23.4203 14.1457 23.6763 14.0817 23.9323C14.0177 24.1883 13.9217 24.4763 13.7937 24.7963C13.6657 25.1803 13.6017 25.4683 13.6017 25.6603C13.6657 25.9803 13.5697 26.2683 13.3137 26.5243C12.9297 27.0363 12.6737 27.6443 12.5457 28.3483C12.4817 28.7323 12.3857 29.1163 12.2577 29.5003C12.1297 29.8843 12.0017 30.2363 11.8737 30.5563L11.3937 33.0523C11.3937 33.1163 11.4577 33.2123 11.5857 33.3403H11.9697C12.3537 33.3403 12.7057 33.3403 13.0257 33.3403C13.4097 33.3403 13.7617 33.3083 14.0817 33.2443C14.4657 33.2443 14.8497 33.2443 15.2337 33.2443C15.6177 33.1803 16.0337 33.1483 16.4817 33.1483C16.9937 33.0843 17.5377 33.0523 18.1137 33.0523C18.6897 33.0523 19.2337 33.0203 19.7457 32.9563C19.9377 32.8923 20.1297 32.8603 20.3217 32.8603C20.5137 32.8603 20.7057 32.8603 20.8977 32.8603C21.3457 32.8603 21.7937 32.8603 22.2417 32.8603C22.6897 32.8603 23.1377 32.8923 23.5857 32.9563C23.7777 32.9563 23.9697 32.9563 24.1617 32.9563C24.4177 32.9563 24.6417 32.9883 24.8337 33.0523H25.9857C26.2417 33.0523 26.3697 32.9243 26.3697 32.6683C26.3697 32.5403 26.3697 32.4443 26.3697 32.3803C26.4337 32.3163 26.4657 32.2523 26.4657 32.1883V26.2363C26.4657 26.0443 26.4657 25.8843 26.4657 25.7563C26.5297 25.5643 26.5617 25.4043 26.5617 25.2763C26.6257 24.9563 26.6577 24.6683 26.6577 24.4123C26.6577 24.0923 26.6577 23.8043 26.6577 23.5483C26.5937 23.2283 26.5617 22.9403 26.5617 22.6843C26.6257 22.4283 26.6577 22.1723 26.6577 21.9163C26.6577 20.8283 26.6897 19.7083 26.7537 18.5563C26.8177 17.4043 26.8817 16.2843 26.9457 15.1963C27.0737 14.3643 27.1697 13.5323 27.2337 12.7003C27.3617 11.8683 27.5217 11.0363 27.7137 10.2043C27.8417 9.69228 27.9377 9.21228 28.0017 8.76428C28.1297 8.25227 28.2577 7.77228 28.3857 7.32428C28.5777 6.74828 28.8337 6.10828 29.1537 5.40428C29.3457 4.95628 29.6017 4.60428 29.9217 4.34828C30.2417 4.02828 30.5617 3.74028 30.8817 3.48428C31.0097 3.48428 31.1057 3.48428 31.1697 3.48428C31.2337 3.42028 31.2977 3.38828 31.3617 3.38828C31.4897 3.32428 31.6177 3.29228 31.7457 3.29228C31.8737 3.22828 31.9697 3.16428 32.0337 3.10027C32.4817 2.90828 32.8977 2.84428 33.2817 2.90828L35.1057 3.19628L35.3937 3.48428C35.3937 3.54827 35.3937 3.61228 35.3937 3.67628C35.4577 3.67628 35.4897 3.70828 35.4897 3.77228C35.6177 4.02828 35.7137 4.28428 35.7777 4.54028C35.9057 4.73228 36.0337 4.92428 36.1617 5.11628C36.5457 5.69228 36.7057 6.33228 36.6417 7.03628V7.13227C36.5777 7.51628 36.7057 7.83628 37.0257 8.09228C37.4097 8.34828 37.5377 8.70027 37.4097 9.14828V9.34027C37.2817 9.78828 37.1537 10.2363 37.0257 10.6843C36.8977 11.1323 36.7697 11.5803 36.6417 12.0283C36.6417 12.1563 36.5137 12.1883 36.2577 12.1243C36.1937 12.1243 36.1617 12.1243 36.1617 12.1243C36.1617 12.0603 36.1297 12.0283 36.0657 12.0283C35.8097 12.0283 35.7457 12.0923 35.8737 12.2203L36.0657 12.5083C36.1937 12.8283 36.1297 13.0523 35.8737 13.1803C35.8097 13.1803 35.7457 13.2123 35.6817 13.2763C35.6177 13.3403 35.5857 13.4043 35.5857 13.4683C35.5857 13.7243 35.5857 13.9803 35.5857 14.2363C35.5857 14.4923 35.5537 14.7803 35.4897 15.1003C35.4897 15.1643 35.4897 15.2283 35.4897 15.2923C35.5537 15.2923 35.5857 15.2923 35.5857 15.2923L35.8737 15.5803C36.0017 15.9003 35.9377 16.1563 35.6817 16.3483C35.4257 16.4123 35.2977 16.5723 35.2977 16.8283C35.2977 17.2763 35.2657 17.7883 35.2017 18.3643C35.2017 18.8763 35.2017 19.3883 35.2017 19.9003V23.3563C35.2017 23.6123 35.1697 23.9003 35.1057 24.2203C35.1057 24.5403 35.0737 24.8603 35.0097 25.1803C35.0097 25.4363 35.0417 25.7243 35.1057 26.0443C35.1697 26.3003 35.2017 26.5883 35.2017 26.9083C35.2017 27.1003 35.1697 27.2923 35.1057 27.4843C35.1057 27.6123 35.1057 27.7723 35.1057 27.9643C35.0417 28.2203 34.9777 28.5083 34.9137 28.8283C34.9137 29.0843 34.9137 29.3723 34.9137 29.6923C34.9777 30.0763 35.0097 30.4603 35.0097 30.8443C35.0097 31.2283 35.0097 31.5803 35.0097 31.9003V32.6683C35.1377 32.9243 35.2657 33.0843 35.3937 33.1483C35.5217 33.1483 35.6177 33.1803 35.6817 33.2443C35.7457 33.2443 35.8097 33.2443 35.8737 33.2443C36.0017 33.2443 36.1297 33.2763 36.2577 33.3403C36.4497 33.3403 36.6097 33.3083 36.7377 33.2443C37.2497 33.2443 37.6977 33.2443 38.0817 33.2443C38.5297 33.2443 38.9777 33.2123 39.4257 33.1483H42.2097C43.2337 33.1483 44.1617 33.0203 44.9937 32.7643L46.7217 32.4763H47.2977C47.7457 32.6043 48.1617 32.7643 48.5457 32.9563C48.9297 33.1483 49.2497 33.4363 49.5057 33.8203C49.6337 33.9483 49.6977 34.0443 49.6977 34.1083C49.8257 34.4923 49.9857 34.8443 50.1777 35.1643C50.3697 35.4843 50.4977 35.8363 50.5617 36.2203C50.6897 36.4763 50.7537 36.6043 50.7537 36.6043C50.9457 36.9883 50.9137 37.4683 50.6577 38.0443C50.6577 38.1083 50.6257 38.1723 50.5617 38.2363C50.5617 38.3003 50.5617 38.3963 50.5617 38.5243C50.4977 38.7163 50.5617 38.8763 50.7537 39.0043C50.8817 39.0683 50.9777 39.1003 51.0417 39.1003C51.1697 39.1003 51.2657 39.1323 51.3297 39.1963C51.4577 39.1963 51.5217 39.2603 51.5217 39.3883C51.5217 39.4523 51.4897 39.5163 51.4257 39.5803C51.2337 39.7723 50.9457 39.9963 50.5617 40.2523C50.5617 40.3163 50.5297 40.3483 50.4657 40.3483C50.4017 40.3483 50.3697 40.3163 50.3697 40.2523C50.3057 40.2523 50.2097 40.1883 50.0817 40.0603C49.8257 40.0603 49.6657 40.0923 49.6017 40.1563L49.3137 40.4443C49.1217 40.9563 48.7377 41.3083 48.1617 41.5003C47.7777 41.7563 47.3617 41.9163 46.9137 41.9803C46.4657 41.9803 46.0177 41.9483 45.5697 41.8843C44.8657 41.6923 44.1297 41.5963 43.3617 41.5963C42.5937 41.5963 41.8577 41.5963 41.1537 41.5963C40.7697 41.5323 40.3857 41.5003 40.0017 41.5003C39.6177 41.5003 39.2657 41.4683 38.9457 41.4043C38.7537 41.3403 38.5617 41.3403 38.3697 41.4043C38.1777 41.4043 37.9857 41.4043 37.7937 41.4043C37.6017 41.4683 37.3777 41.5003 37.1217 41.5003C36.9297 41.5003 36.7057 41.5003 36.4497 41.5003C36.1937 41.5003 36.0337 41.6603 35.9697 41.9803V42.4603C35.9057 42.6523 35.7137 42.7803 35.3937 42.8443V42.7483C35.3297 43.0043 35.2977 43.3563 35.2977 43.8043C35.2977 44.1243 35.4257 44.3483 35.6817 44.4763C35.8737 44.5403 35.9697 44.7323 35.9697 45.0523C35.9057 45.1163 35.8737 45.1803 35.8737 45.2443C35.8737 45.2443 35.8097 45.2763 35.6817 45.3403C35.4257 45.4043 35.3617 45.5003 35.4897 45.6283C35.6817 45.8203 35.7777 45.9483 35.7777 46.0123C36.0337 46.3963 36.0657 46.7483 35.8737 47.0683L35.5857 47.6443C35.5217 47.9003 35.5537 48.1243 35.6817 48.3163C35.8097 48.4443 35.8737 48.5083 35.8737 48.5083L36.1617 48.8923C36.1617 48.9563 36.0657 49.0843 35.8737 49.2763C35.7457 49.4043 35.6817 49.5003 35.6817 49.5643V51.5803C35.7457 51.6443 35.7777 51.7403 35.7777 51.8683C35.8417 51.9963 35.9057 52.1243 35.9697 52.2523C36.1617 52.5723 36.3217 52.9243 36.4497 53.3083C36.5777 53.6283 36.6417 53.9803 36.6417 54.3643C36.6417 54.4923 36.6097 54.5883 36.5457 54.6523C36.5457 54.6523 36.4817 54.7163 36.3537 54.8443L36.2577 54.7483C36.1937 54.6203 36.1617 54.4923 36.1617 54.3643C36.1617 54.2363 36.1297 54.1403 36.0657 54.0763C35.9377 54.7163 35.9697 55.2283 36.1617 55.6123C36.1617 55.6763 36.1937 55.7403 36.2577 55.8043C36.3217 55.8043 36.3857 55.8363 36.4497 55.9003C36.5777 56.0283 36.6417 56.1243 36.6417 56.1883C36.7057 56.3163 36.7377 56.4763 36.7377 56.6683C36.7377 57.2443 36.8337 57.7243 37.0257 58.1083C37.2177 58.6843 37.3137 59.2283 37.3137 59.7403C37.3137 59.8683 37.3137 60.0283 37.3137 60.2203C37.3777 60.3483 37.4097 60.4763 37.4097 60.6043C37.4097 60.7323 37.3457 60.8603 37.2177 60.9883C37.0897 61.2443 36.9297 61.3083 36.7377 61.1803C36.5457 61.1803 36.4497 61.0843 36.4497 60.8923V60.6043C36.2577 60.7963 36.0977 61.0843 35.9697 61.4683C35.9057 61.5323 35.8737 61.6283 35.8737 61.7563C35.8737 61.8203 35.8417 61.9163 35.7777 62.0443C35.7137 62.3003 35.4897 62.4923 35.1057 62.6203H34.5297C34.4657 62.6843 34.4017 62.7163 34.3377 62.7163C34.2737 62.7163 34.1777 62.7803 34.0497 62.9083C33.9857 62.9083 33.9217 62.9403 33.8577 63.0043C33.8577 63.0043 33.8257 63.0043 33.7617 63.0043C33.4417 63.0043 33.2177 63.0683 33.0897 63.1963H32.8977ZM36.7377 60.6043C36.6737 60.4763 36.6097 60.4443 36.5457 60.5083C36.5457 60.5723 36.5137 60.6043 36.4497 60.6043H36.7377Z" fill="#5C2B94"/>
<path d="M160.044 63.1963C159.596 63.1323 159.116 63.1003 158.604 63.1003C158.092 63.0363 157.58 62.8763 157.068 62.6203C156.812 62.4923 156.62 62.4283 156.492 62.4283C155.98 62.2363 155.628 61.8843 155.436 61.3723V61.0843C154.924 59.9963 154.732 58.8763 154.86 57.7243C154.86 57.5323 154.86 57.3403 154.86 57.1483C154.86 56.9563 154.828 56.7643 154.764 56.5723C154.7 56.1243 154.636 55.6763 154.572 55.2283C154.572 54.7803 154.572 54.3323 154.572 53.8843C154.572 53.6283 154.54 53.4043 154.476 53.2123C154.476 52.9563 154.476 52.7003 154.476 52.4443C154.412 52.1883 154.38 51.9643 154.38 51.7723C154.38 51.5803 154.38 51.3883 154.38 51.1963C154.38 50.4923 154.38 49.8203 154.38 49.1803C154.38 48.5403 154.316 47.9003 154.188 47.2603C154.124 47.0683 154.092 46.9083 154.092 46.7803C154.156 46.5883 154.156 46.3963 154.092 46.2043C154.092 45.8203 154.092 45.4363 154.092 45.0523C154.092 44.6683 154.028 44.2843 153.9 43.9003C153.836 43.7083 153.804 43.5163 153.804 43.3243C153.868 43.0683 153.868 42.8443 153.804 42.6523L153.708 41.9803C153.58 41.6603 153.388 41.5003 153.132 41.5003C152.812 41.4363 152.46 41.4043 152.076 41.4043C151.756 41.3403 151.404 41.3403 151.02 41.4043C150.636 41.4683 150.22 41.5323 149.772 41.5963C149.388 41.5963 149.004 41.5963 148.62 41.5963C147.98 41.5963 147.372 41.5963 146.796 41.5963C146.22 41.5963 145.612 41.6603 144.972 41.7883H144.492C143.916 41.7883 143.34 41.8523 142.764 41.9803C142.188 42.0443 141.612 42.1403 141.036 42.2683C140.652 42.2683 140.332 42.3003 140.076 42.3643C139.18 42.4923 138.348 42.7803 137.58 43.2283C137.324 43.3563 137.068 43.5163 136.812 43.7083C136.556 43.9003 136.268 44.0603 135.948 44.1883C135.628 44.3803 135.404 44.7003 135.276 45.1483C135.212 45.4683 135.116 45.8203 134.988 46.2043C134.924 46.5243 134.892 46.8763 134.892 47.2603C134.892 47.7723 134.7 48.2843 134.316 48.7963C134.06 49.2443 133.644 49.4683 133.068 49.4683C132.492 49.4683 132.044 49.2443 131.724 48.7963C131.468 48.5403 131.276 48.1883 131.148 47.7403C131.02 47.1003 130.892 46.5563 130.764 46.1083L130.476 44.6683C130.284 44.2203 130.06 43.7723 129.804 43.3243L129.228 42.4603C128.46 41.1803 128.076 39.8363 128.076 38.4283C128.076 38.0443 128.172 37.6603 128.364 37.2763L128.652 36.4123C128.78 36.0923 128.876 35.7723 128.94 35.4523C129.004 35.0683 129.068 34.7163 129.132 34.3963C129.26 33.2443 129.452 32.0923 129.708 30.9403C129.964 29.7243 130.252 28.5083 130.572 27.2923C130.892 26.0763 131.212 24.8603 131.532 23.6443C131.724 23.0043 131.916 22.3963 132.108 21.8203C132.3 21.1803 132.46 20.5403 132.588 19.9003C132.844 18.8763 133.1 17.8843 133.356 16.9243C133.612 15.9643 133.868 14.9723 134.124 13.9483C134.124 13.8203 134.188 13.6283 134.316 13.3723C134.636 12.6043 134.924 11.8363 135.18 11.0683C135.5 10.2363 135.852 9.46828 136.236 8.76428L136.524 8.18828C136.588 7.93228 136.684 7.70828 136.812 7.51627C136.94 7.32428 137.068 7.10028 137.196 6.84428C137.452 6.52428 137.74 6.26828 138.06 6.07628C138.38 5.82028 138.7 5.62828 139.02 5.50028C139.468 5.30828 139.884 5.18028 140.268 5.11628C140.716 5.05228 141.164 4.98828 141.612 4.92427C141.996 4.86027 142.38 4.89228 142.764 5.02028C143.148 5.14828 143.5 5.30828 143.82 5.50028C144.268 5.69228 144.684 5.98028 145.068 6.36428C146.092 7.38828 146.508 8.60428 146.316 10.0123C146.188 11.1643 145.868 12.2523 145.356 13.2763C145.1 13.8523 144.844 14.4603 144.588 15.1003C144.396 15.6763 144.204 16.2843 144.012 16.9243C143.884 17.4363 143.724 17.9483 143.532 18.4603C143.404 18.9723 143.244 19.4843 143.052 19.9963C142.988 20.1883 142.924 20.3803 142.86 20.5723C142.796 20.7003 142.732 20.8603 142.668 21.0523C142.604 21.1803 142.508 21.3083 142.38 21.4363C142.316 21.5643 142.22 21.6923 142.092 21.8203C141.772 22.1403 141.548 22.5883 141.42 23.1643C141.356 23.4203 141.292 23.6763 141.228 23.9323C141.164 24.1883 141.068 24.4763 140.94 24.7963C140.812 25.1803 140.748 25.4683 140.748 25.6603C140.812 25.9803 140.716 26.2683 140.46 26.5243C140.076 27.0363 139.82 27.6443 139.692 28.3483C139.628 28.7323 139.532 29.1163 139.404 29.5003C139.276 29.8843 139.148 30.2363 139.02 30.5563L138.54 33.0523C138.54 33.1163 138.604 33.2123 138.732 33.3403H139.116C139.5 33.3403 139.852 33.3403 140.172 33.3403C140.556 33.3403 140.908 33.3083 141.228 33.2443C141.612 33.2443 141.996 33.2443 142.38 33.2443C142.764 33.1803 143.18 33.1483 143.628 33.1483C144.14 33.0843 144.684 33.0523 145.26 33.0523C145.836 33.0523 146.38 33.0203 146.892 32.9563C147.084 32.8923 147.276 32.8603 147.468 32.8603C147.66 32.8603 147.852 32.8603 148.044 32.8603C148.492 32.8603 148.94 32.8603 149.388 32.8603C149.836 32.8603 150.284 32.8923 150.732 32.9563C150.924 32.9563 151.116 32.9563 151.308 32.9563C151.564 32.9563 151.788 32.9883 151.98 33.0523H153.132C153.388 33.0523 153.516 32.9243 153.516 32.6683C153.516 32.5403 153.516 32.4443 153.516 32.3803C153.58 32.3163 153.612 32.2523 153.612 32.1883V26.2363C153.612 26.0443 153.612 25.8843 153.612 25.7563C153.676 25.5643 153.708 25.4043 153.708 25.2763C153.772 24.9563 153.804 24.6683 153.804 24.4123C153.804 24.0923 153.804 23.8043 153.804 23.5483C153.74 23.2283 153.708 22.9403 153.708 22.6843C153.772 22.4283 153.804 22.1723 153.804 21.9163C153.804 20.8283 153.836 19.7083 153.9 18.5563C153.964 17.4043 154.028 16.2843 154.092 15.1963C154.22 14.3643 154.316 13.5323 154.38 12.7003C154.508 11.8683 154.668 11.0363 154.86 10.2043C154.988 9.69228 155.084 9.21228 155.148 8.76428C155.276 8.25227 155.404 7.77228 155.532 7.32428C155.724 6.74828 155.98 6.10828 156.3 5.40428C156.492 4.95628 156.748 4.60428 157.068 4.34828C157.388 4.02828 157.708 3.74028 158.028 3.48428C158.156 3.48428 158.252 3.48428 158.316 3.48428C158.38 3.42028 158.444 3.38828 158.508 3.38828C158.636 3.32428 158.764 3.29228 158.892 3.29228C159.02 3.22828 159.116 3.16428 159.18 3.10027C159.628 2.90828 160.044 2.84428 160.428 2.90828L162.252 3.19628L162.54 3.48428C162.54 3.54827 162.54 3.61228 162.54 3.67628C162.604 3.67628 162.636 3.70828 162.636 3.77228C162.764 4.02828 162.86 4.28428 162.924 4.54028C163.052 4.73228 163.18 4.92428 163.308 5.11628C163.692 5.69228 163.852 6.33228 163.788 7.03628V7.13227C163.724 7.51628 163.852 7.83628 164.172 8.09228C164.556 8.34828 164.684 8.70027 164.556 9.14828V9.34027C164.428 9.78828 164.3 10.2363 164.172 10.6843C164.044 11.1323 163.916 11.5803 163.788 12.0283C163.788 12.1563 163.66 12.1883 163.404 12.1243C163.34 12.1243 163.308 12.1243 163.308 12.1243C163.308 12.0603 163.276 12.0283 163.212 12.0283C162.956 12.0283 162.892 12.0923 163.02 12.2203L163.212 12.5083C163.34 12.8283 163.276 13.0523 163.02 13.1803C162.956 13.1803 162.892 13.2123 162.828 13.2763C162.764 13.3403 162.732 13.4043 162.732 13.4683C162.732 13.7243 162.732 13.9803 162.732 14.2363C162.732 14.4923 162.7 14.7803 162.636 15.1003C162.636 15.1643 162.636 15.2283 162.636 15.2923C162.7 15.2923 162.732 15.2923 162.732 15.2923L163.02 15.5803C163.148 15.9003 163.084 16.1563 162.828 16.3483C162.572 16.4123 162.444 16.5723 162.444 16.8283C162.444 17.2763 162.412 17.7883 162.348 18.3643C162.348 18.8763 162.348 19.3883 162.348 19.9003V23.3563C162.348 23.6123 162.316 23.9003 162.252 24.2203C162.252 24.5403 162.22 24.8603 162.156 25.1803C162.156 25.4363 162.188 25.7243 162.252 26.0443C162.316 26.3003 162.348 26.5883 162.348 26.9083C162.348 27.1003 162.316 27.2923 162.252 27.4843C162.252 27.6123 162.252 27.7723 162.252 27.9643C162.188 28.2203 162.124 28.5083 162.06 28.8283C162.06 29.0843 162.06 29.3723 162.06 29.6923C162.124 30.0763 162.156 30.4603 162.156 30.8443C162.156 31.2283 162.156 31.5803 162.156 31.9003V32.6683C162.284 32.9243 162.412 33.0843 162.54 33.1483C162.668 33.1483 162.764 33.1803 162.828 33.2443C162.892 33.2443 162.956 33.2443 163.02 33.2443C163.148 33.2443 163.276 33.2763 163.404 33.3403C163.596 33.3403 163.756 33.3083 163.884 33.2443C164.396 33.2443 164.844 33.2443 165.228 33.2443C165.676 33.2443 166.124 33.2123 166.572 33.1483H169.356C170.38 33.1483 171.308 33.0203 172.14 32.7643L173.868 32.4763H174.444C174.892 32.6043 175.308 32.7643 175.692 32.9563C176.076 33.1483 176.396 33.4363 176.652 33.8203C176.78 33.9483 176.844 34.0443 176.844 34.1083C176.972 34.4923 177.132 34.8443 177.324 35.1643C177.516 35.4843 177.644 35.8363 177.708 36.2203C177.836 36.4763 177.9 36.6043 177.9 36.6043C178.092 36.9883 178.06 37.4683 177.804 38.0443C177.804 38.1083 177.772 38.1723 177.708 38.2363C177.708 38.3003 177.708 38.3963 177.708 38.5243C177.644 38.7163 177.708 38.8763 177.9 39.0043C178.028 39.0683 178.124 39.1003 178.188 39.1003C178.316 39.1003 178.412 39.1323 178.476 39.1963C178.604 39.1963 178.668 39.2603 178.668 39.3883C178.668 39.4523 178.636 39.5163 178.572 39.5803C178.38 39.7723 178.092 39.9963 177.708 40.2523C177.708 40.3163 177.676 40.3483 177.612 40.3483C177.548 40.3483 177.516 40.3163 177.516 40.2523C177.452 40.2523 177.356 40.1883 177.228 40.0603C176.972 40.0603 176.812 40.0923 176.748 40.1563L176.46 40.4443C176.268 40.9563 175.884 41.3083 175.308 41.5003C174.924 41.7563 174.508 41.9163 174.06 41.9803C173.612 41.9803 173.164 41.9483 172.716 41.8843C172.012 41.6923 171.276 41.5963 170.508 41.5963C169.74 41.5963 169.004 41.5963 168.3 41.5963C167.916 41.5323 167.532 41.5003 167.148 41.5003C166.764 41.5003 166.412 41.4683 166.092 41.4043C165.9 41.3403 165.708 41.3403 165.516 41.4043C165.324 41.4043 165.132 41.4043 164.94 41.4043C164.748 41.4683 164.524 41.5003 164.268 41.5003C164.076 41.5003 163.852 41.5003 163.596 41.5003C163.34 41.5003 163.18 41.6603 163.116 41.9803V42.4603C163.052 42.6523 162.86 42.7803 162.54 42.8443V42.7483C162.476 43.0043 162.444 43.3563 162.444 43.8043C162.444 44.1243 162.572 44.3483 162.828 44.4763C163.02 44.5403 163.116 44.7323 163.116 45.0523C163.052 45.1163 163.02 45.1803 163.02 45.2443C163.02 45.2443 162.956 45.2763 162.828 45.3403C162.572 45.4043 162.508 45.5003 162.636 45.6283C162.828 45.8203 162.924 45.9483 162.924 46.0123C163.18 46.3963 163.212 46.7483 163.02 47.0683L162.732 47.6443C162.668 47.9003 162.7 48.1243 162.828 48.3163C162.956 48.4443 163.02 48.5083 163.02 48.5083L163.308 48.8923C163.308 48.9563 163.212 49.0843 163.02 49.2763C162.892 49.4043 162.828 49.5003 162.828 49.5643V51.5803C162.892 51.6443 162.924 51.7403 162.924 51.8683C162.988 51.9963 163.052 52.1243 163.116 52.2523C163.308 52.5723 163.468 52.9243 163.596 53.3083C163.724 53.6283 163.788 53.9803 163.788 54.3643C163.788 54.4923 163.756 54.5883 163.692 54.6523C163.692 54.6523 163.628 54.7163 163.5 54.8443L163.404 54.7483C163.34 54.6203 163.308 54.4923 163.308 54.3643C163.308 54.2363 163.276 54.1403 163.212 54.0763C163.084 54.7163 163.116 55.2283 163.308 55.6123C163.308 55.6763 163.34 55.7403 163.404 55.8043C163.468 55.8043 163.532 55.8363 163.596 55.9003C163.724 56.0283 163.788 56.1243 163.788 56.1883C163.852 56.3163 163.884 56.4763 163.884 56.6683C163.884 57.2443 163.98 57.7243 164.172 58.1083C164.364 58.6843 164.46 59.2283 164.46 59.7403C164.46 59.8683 164.46 60.0283 164.46 60.2203C164.524 60.3483 164.556 60.4763 164.556 60.6043C164.556 60.7323 164.492 60.8603 164.364 60.9883C164.236 61.2443 164.076 61.3083 163.884 61.1803C163.692 61.1803 163.596 61.0843 163.596 60.8923V60.6043C163.404 60.7963 163.244 61.0843 163.116 61.4683C163.052 61.5323 163.02 61.6283 163.02 61.7563C163.02 61.8203 162.988 61.9163 162.924 62.0443C162.86 62.3003 162.636 62.4923 162.252 62.6203H161.676C161.612 62.6843 161.548 62.7163 161.484 62.7163C161.42 62.7163 161.324 62.7803 161.196 62.9083C161.132 62.9083 161.068 62.9403 161.004 63.0043C161.004 63.0043 160.972 63.0043 160.908 63.0043C160.588 63.0043 160.364 63.0683 160.236 63.1963H160.044ZM163.884 60.6043C163.82 60.4763 163.756 60.4443 163.692 60.5083C163.692 60.5723 163.66 60.6043 163.596 60.6043H163.884Z" fill="#5C2B94"/>
<circle cx="89.7988" cy="32.8369" r="32.8369" fill="#5C2B94"/>
<path fill-rule="evenodd" clip-rule="evenodd" d="M99.5444 17.9416C99.5444 19.8508 93.6873 21.3984 86.4622 21.3984C79.2371 21.3984 73.38 19.8508 73.38 17.9416C73.38 16.0325 79.2371 14.4849 86.4622 14.4849C93.6873 14.4849 99.5444 16.0325 99.5444 17.9416ZM96.2904 18.5833C96.9826 17.9814 95.668 16.7266 95.5065 16.7623C97.1187 19.4533 86.0922 20.273 84.517 20.3695C91.8626 20.6909 95.6855 19.4386 96.2904 18.5833Z" fill="#EBEAED"/>
<path d="M71.7528 19.7301C69.8053 20.2474 66.7517 21.609 67.3274 23.6915C68.2828 27.1482 74.9292 28.117 75.4645 28.1527C75.1552 28.0813 74.5723 27.6031 74.715 26.2612C72.764 26.0589 69.0401 24.6236 69.1161 22.7436C69.1621 21.6077 70.6969 20.5402 71.4237 20.0346C71.721 19.8278 71.8831 19.715 71.7528 19.7301Z" fill="#EBEAED"/>
<path d="M73.0663 22.7895V18.7325C73.7428 19.4814 75.5719 21.1032 77.476 21.5989C77.9995 21.7455 78.3309 21.7528 78.666 21.7603C79.0366 21.7685 79.4116 21.7769 80.0557 21.9737C80.7215 22.1772 81.7176 22.7033 81.6314 23.6408C81.5451 24.5783 80.9577 24.8851 80.5388 25.0174C80.2361 25.113 79.6368 24.9503 79.3722 24.4652C79.1606 24.0772 78.8578 23.9067 78.7328 23.8699C78.527 23.7817 78.0713 23.8117 77.895 24.2526C77.7186 24.6936 77.8215 25.1193 77.895 25.3251C78.1816 25.9425 78.7505 27.2301 78.7328 27.4418C78.7108 27.7064 78.4462 28.0812 78.1154 28.1253C77.7847 28.1694 76.9248 28.0812 76.6602 27.9048C76.3956 27.7284 76.2193 27.4639 76.3736 26.7583C76.4971 26.1938 76.8807 25.3178 77.0571 24.9503C77.1894 24.6269 77.3746 23.8611 77.0571 23.3848C76.7396 22.9086 75.8665 23.2599 75.4696 23.4951C75.3447 23.6053 74.914 23.8567 74.1908 23.9802C73.4676 24.1036 73.1398 23.2378 73.0663 22.7895Z" fill="#EBEAED"/>
<path d="M66.9525 23.881C66.7626 24.0774 66.4496 24.7258 66.7168 25.7476C66.8564 26.2813 67.1674 26.9967 67.5239 27.8165C68.0206 28.959 68.6055 30.3041 68.9372 31.6426C69.4998 33.9123 70.4837 38.7674 70.452 39.8552L70.4502 39.8955C70.451 39.8827 70.4516 39.8693 70.452 39.8552C70.5683 37.1374 70.5795 31.1586 69.7036 28.6558C69.5595 28.4135 69.3577 27.9524 69.7036 28.0467C69.7424 28.0573 69.7868 28.0683 69.8359 28.0806C70.3333 28.2046 71.3142 28.4492 71.9043 29.5401C72.5528 30.7387 72.7296 31.4461 72.6903 32.5661C72.6314 32.8478 72.5017 33.4897 72.4545 33.8041C72.4363 33.9254 72.4088 34.0261 72.3805 34.1294C72.3172 34.3606 72.2505 34.6044 72.2777 35.1206C72.317 35.8673 72.651 36.5354 73.6532 36.4175C74.6553 36.2996 75.0286 35.7887 75.1072 35.1206C75.1701 34.5861 74.3343 33.4962 73.9086 33.0181C73.7449 32.7823 73.4409 32.1495 73.5353 31.505C73.6532 30.6994 74.8125 29.4418 76.2862 29.3829C77.4652 29.3357 77.8778 29.7562 77.9368 29.9724C78.6114 30.9221 80.2201 32.8412 81.2576 32.9198C82.5545 33.0181 83.3405 32.8412 83.9103 32.5661C84.4802 32.291 89.7887 29.825 91.0568 30.5204C91.3568 30.5797 91.9608 30.9204 91.9772 31.809C91.9936 32.6977 91.8749 33.5093 91.8136 33.8041C91.7249 34.0936 91.6009 34.8076 91.8136 35.3475L91.8322 35.395C92.0963 36.0676 92.4642 37.0048 94.0226 37.0247C95.618 37.0452 95.7611 35.3641 95.7202 35.1206C95.7177 35.1058 95.7153 35.0893 95.7127 35.0711C95.6716 34.7894 95.5719 34.1053 94.2271 33.2408C93.9544 33.084 93.4212 32.6067 93.4703 31.9522C93.5194 31.2977 94.1317 30.725 94.4316 30.5204C94.5748 30.4386 95.3112 30.3895 97.1111 30.8477C98.911 31.3059 99.5383 31.7749 99.6269 31.9522C99.8314 32.0545 100.2 32.3572 100.036 32.7499C99.8723 33.1426 99.2996 34.1408 99.0337 34.5907C98.6724 35.1225 97.9374 36.3252 97.8883 36.8816C97.879 36.9876 97.8672 37.0922 97.8557 37.1948C97.7918 37.7647 97.7351 38.2703 98.1338 38.5997C98.6042 38.9883 99.4428 39.2951 100.036 38.9474C100.413 38.7261 100.526 37.0301 100.632 35.436C100.692 34.5253 100.75 33.6479 100.854 33.0976C101.083 31.8868 101.85 30.2614 102.204 29.6C102.02 31.6727 101.615 36.0593 101.468 37.0247C101.32 37.9902 100.997 40.3041 100.854 41.3405C101.25 40.8223 102.261 38.3788 103.145 32.7499L104.679 24.8343C103.69 25.7615 100.031 27.8335 93.0606 28.9953C84.3473 30.4475 68.5269 30.1212 66.9525 23.881Z" fill="#EBEAED"/>
<path d="M84.6192 33.2584H82.6937V35.1326H84.6192V33.2584Z" fill="#EBEAED"/>
<path d="M84.6192 35.8852H82.6937V37.7594H84.6192V35.8852Z" fill="#EBEAED"/>
<path d="M85.5694 33.2584H87.4949V35.1326H85.5694V33.2584Z" fill="#EBEAED"/>
<path d="M87.4949 35.8852H85.5694V37.7594H87.4949V35.8852Z" fill="#EBEAED"/>
<path d="M99.71 18.9777V23.4925C99.6076 23.0113 99.0958 22.1472 97.8673 22.5404C96.6388 22.9335 96.864 23.8712 97.1302 24.291C97.2531 24.4445 97.4619 24.9114 97.3145 25.5502C97.1302 26.3487 96.3624 26.6558 95.9939 26.6865C95.6253 26.7172 95.1032 26.3487 95.3489 25.5502C95.5946 24.7517 95.7564 23.9825 95.6427 23.5764C95.529 23.1702 94.9604 22.7479 94.4081 22.9103C93.8558 23.0728 93.6771 23.4951 93.7258 23.9662C93.7745 24.4373 93.8882 24.9084 94.3268 25.2821C94.7654 25.6557 95.0741 26.7929 94.9604 27.3289C94.8467 27.865 94.6893 28.5375 93.7258 28.5375H93.7104C92.8873 28.5376 92.0854 28.5377 92.15 26.9878C92.1852 26.1418 92.4261 25.6113 92.6261 25.1707C92.7948 24.7991 92.9344 24.4915 92.8973 24.1124C92.8304 23.43 92.6752 23.3648 92.3684 23.2359C92.3028 23.2083 92.2302 23.1778 92.15 23.1377C91.6952 22.9103 90.7692 23.2352 90.5743 23.6738C90.3793 24.1124 89.0147 25.1521 88.1212 25.2821C87.2278 25.412 85.9444 24.8597 85.6682 24.4861C85.3921 24.1124 84.6605 23.4412 83.9171 24.1124C83.3224 24.6494 83.9905 25.9585 84.3989 26.5458C84.6376 26.8854 85.0653 27.6802 84.867 28.1428C84.6192 28.721 84.0135 28.8587 83.5041 28.8449C82.9947 28.8312 82.1962 28.666 82.21 27.7436C82.2173 27.2552 82.4175 26.5755 82.6146 25.9067C82.7897 25.3123 82.9623 24.7264 82.9947 24.291C83.0051 24.1516 83.0111 24.0208 83.0167 23.8982C83.0484 23.2065 83.0682 22.7748 83.7932 22.5404C84.4761 22.3195 86.4365 22.2827 87.3313 22.2919C89.5603 22.1894 94.3658 21.8999 95.7563 21.562C97.4945 21.1396 99.4725 19.9348 99.71 18.9777Z" fill="#EBEAED"/>
<path d="M102.721 20.0938C101.705 19.4551 100.754 19.3203 100.255 19.4147C101.214 19.6831 102.144 20.953 102.193 22.402C102.273 24.807 98.9613 26.4861 98.3591 26.7725C98.7462 26.8658 101.829 25.2965 103.113 24.4147C104.397 23.5329 104.532 22.5553 104.474 22.1719C104.416 21.7885 103.856 20.8064 102.721 20.0938Z" fill="#EBEAED"/>
<path d="M105.114 18.3932C105.27 17.6997 106.096 17.4466 106.489 17.4068C106.558 17.5027 106.421 17.5464 106.22 17.5919C106.02 17.6375 105.297 17.8729 105.335 18.5565C105.367 19.1339 106.424 19.4186 106.869 19.5386C106.95 19.5607 107.012 19.5771 107.042 19.5889L107.055 19.5939C107.261 19.6728 107.78 19.8723 107.372 20.4484C106.956 21.0371 106.788 21.956 107.042 22.3581C107.277 22.7302 107.544 22.5856 108.221 22.2204L108.223 22.2191C108.277 22.1902 108.333 22.1599 108.392 22.1283C109.196 21.6976 110.287 22.1427 109.971 22.1283C109.718 22.1168 109.518 22.3437 109.449 22.4585C109.126 22.2608 108.704 22.4641 108.275 22.6713C107.73 22.9338 107.173 23.2025 106.788 22.6678C106.135 21.7588 106.85 20.6218 107.091 20.238C107.104 20.2179 107.115 20.1999 107.125 20.184C107.261 19.9643 106.888 19.8445 106.384 19.6829C106.292 19.6533 106.195 19.6222 106.096 19.5889C105.599 19.4208 104.959 19.0867 105.114 18.3932Z" fill="#EBEAED"/>
<path fill-rule="evenodd" clip-rule="evenodd" d="M66.585 46.302C64.6183 44.2478 65.8369 42.3706 66.8394 41.5276C66.8883 41.4865 66.9517 41.5459 66.9205 41.6016C66.12 43.0317 66.4801 43.9431 66.8602 44.6314C66.9978 44.8805 67.1574 45.1179 67.3531 45.3246C70.2922 48.4283 78.0703 49.5191 80.6938 49.7215L80.8099 42.7033C81.9365 36.5606 89.9488 38.2741 89.9488 42.7033V49.8375C93.9976 49.6131 98.9533 48.5494 101.977 46.9484C104.613 45.5525 106.011 43.6715 106.753 39.991C109.17 48.9531 95.1963 51.2526 85.9984 51.1346C76.8005 51.0167 69.2382 49.0732 66.585 46.302ZM88.8712 44.7602C88.8712 45.267 88.4604 45.6778 87.9535 45.6778C87.4467 45.6778 87.0358 45.267 87.0358 44.7602C87.0358 44.2533 87.4467 43.8425 87.9535 43.8425C88.4604 43.8425 88.8712 44.2533 88.8712 44.7602Z" fill="#EBEAED"/>
<path d="M105.369 31.9174C105.77 31.6386 106.972 30.5857 107.545 30.0774L107.813 30.4146C107.813 30.4146 105.637 32.4418 105.413 32.5907C105.19 32.7397 104.668 33.2113 104.511 33.6995C104.354 34.1877 104.685 34.7752 104.817 34.9572C104.921 35.0995 105.358 35.9812 105.721 36.7138C105.822 36.9186 105.918 37.1118 105.999 37.2739C106.296 37.8675 106.474 39.2201 106.526 39.8222H106.341C106.286 39.2099 106.137 38.7602 105.814 37.7845L105.745 37.5765C105.448 36.6783 104.874 35.8359 104.624 35.527C104.028 35.8312 103.439 35.8381 103.219 35.8035L103.276 35.527C103.912 35.5823 104.294 35.2351 104.405 35.0546C103.334 33.4762 104.868 32.2659 105.369 31.9174Z" fill="#EBEAED"/>
<path d="M108.367 32.6718C108.111 32.1234 108.05 31.0648 108.052 30.604L108.547 30.8625C108.551 31.33 108.74 32.286 108.833 32.7055L108.367 32.6718Z" fill="#EBEAED"/>
<path d="M103.713 43.8277L102.637 44.5453L102.86 44.7926L103.899 44.0503L103.713 43.8277Z" fill="#EBEAED"/>
<path d="M107.947 23.5265C108.195 22.7561 109.014 22.5634 109.392 22.5634C109.862 21.543 111.364 22.4603 111.834 23.1138C112.304 23.7672 112.396 25.3723 112.086 26.0946C111.839 26.6724 111.609 27.65 111.525 28.0665C110.772 26.5715 109.476 26.45 108.922 26.5761C108.108 25.9456 107.638 24.4895 107.947 23.5265Z" fill="url(#paint0_linear_214_240)"/>
<path d="M101.36 33.154C100.789 33.3892 101.062 34.0351 101.271 34.2781C100.849 34.0606 99.9148 33.6582 99.4202 34.2781C98.9576 34.858 99.1389 35.5747 99.4202 36.1886C99.7016 36.8025 100.491 37.1429 101.028 37.4627C101.458 37.7185 102.316 38.7288 102.691 39.202C102.563 38.3323 103.131 36.6027 103.284 35.7075C103.438 34.8123 103.202 34.0608 102.819 33.5492C102.435 33.0376 101.919 32.924 101.36 33.154Z" fill="url(#paint1_linear_214_240)"/>
<path d="M106.36 39.7355C105.449 39.7356 105.195 39.9979 105.39 40.5664C104.699 40.1348 103.966 40.2749 103.491 40.9978C102.92 41.8679 103.21 42.8323 103.491 43.4464C103.905 44.3521 105.176 44.7526 105.777 44.9243C106.532 45.14 109.035 46.359 109.739 46.8706C109.611 46.001 108.996 46.3413 109.372 42.2004C109.454 41.2958 109.046 40.5123 108.227 40.1348C107.646 39.8673 107.051 39.7354 106.36 39.7355Z" fill="url(#paint2_linear_214_240)"/>
<path d="M100.327 45.8398C100.327 46.477 100.536 46.5905 100.694 46.5519C100.687 46.1657 100.69 45.3188 100.911 44.877C101.187 44.3248 101.42 44.1195 101.753 44.0982C102.086 44.077 102.971 44.2823 103.53 45.67C104.09 47.0577 103.529 48.3566 103.181 48.8921C102.832 49.4275 101.97 50.2129 101.555 50.5341C101.14 50.8554 100.477 51.1141 99.8341 51.6897C99.1916 52.2652 99.0794 52.2707 98.8678 52.7298C98.7042 52.5844 97.541 50.3125 97.2139 49.64C96.8867 48.9676 96.52 47.3002 96.6162 46.1466C96.7123 44.993 97.5679 43.9739 98.2985 43.6471C99.0292 43.3202 99.7149 43.3541 100.196 43.7867C100.654 44.1995 100.327 45.3584 100.327 45.8398Z" fill="url(#paint3_linear_214_240)"/>
<path d="M110.12 39.7588C110.325 40.0966 110.666 40.6504 110.811 40.885C110.953 40.3911 111.327 39.4089 111.502 38.9054C111.677 38.402 111.633 37.9861 113.034 39.1462C114.435 40.3063 114.238 43.2614 113.428 44.8374C112.78 46.0982 112.195 48.0041 111.983 48.7994C111.861 48.169 110.374 46.1729 109.646 45.2537C109.653 44.8957 109.678 44.1184 109.721 43.8732C109.774 43.5668 109.97 41.5874 109.49 40.8123C109.107 40.1921 108.654 39.9291 108.476 39.875C108.546 39.5791 109.025 39.1492 109.406 39.0153C109.786 38.8814 109.864 39.3364 110.12 39.7588Z" fill="url(#paint4_linear_214_240)"/>
<path d="M107.924 32.8112C108.589 32.2445 109.621 33.2045 110.053 33.7553C109.91 33.4826 109.261 31.9047 110.053 32.1286C110.846 32.3526 111.457 32.9002 111.951 33.4169C112.428 33.9162 112.778 34.7464 112.705 35.4404C112.632 36.1344 111.731 37.1815 111.366 37.7537C111.074 38.2115 110.871 39.0241 110.806 39.3731C110.148 38.882 108.894 37.9691 108.395 37.4006C107.957 36.9014 107.506 35.8945 107.372 35.1103L107.369 35.0945C107.236 34.3153 107.099 33.5148 107.924 32.8112Z" fill="url(#paint5_linear_214_240)"/>
<path d="M107.146 27.1984C107.746 26.678 108.249 27.2855 108.426 27.6544C108.426 27.4804 108.549 27.1028 109.04 26.9842C109.654 26.836 110.761 27.5112 111.131 28.1205C111.502 28.7298 111.485 29.9813 111.527 30.673C111.56 31.2263 111.859 32.2759 112.004 32.7315C111.593 32.3939 110.662 31.8834 110.217 31.6693C109.773 31.4552 108.949 31.2576 107.895 30.566C106.842 29.8743 106.397 27.8488 107.146 27.1984Z" fill="url(#paint6_linear_214_240)"/>
<defs>
<linearGradient id="paint0_linear_214_240" x1="107.852" y1="24.1112" x2="112.267" y2="24.1112" gradientUnits="userSpaceOnUse">
<stop stop-color="#8D6198"/>
<stop offset="0.27" stop-color="#95AA69"/>
<stop offset="0.513121" stop-color="#98C954"/>
<stop offset="1" stop-color="#9ACC53"/>
</linearGradient>
<linearGradient id="paint1_linear_214_240" x1="98.6883" y1="35.1505" x2="103.332" y2="35.1505" gradientUnits="userSpaceOnUse">
<stop stop-color="#6D419F"/>
<stop offset="0.37689" stop-color="#9ACC53"/>
</linearGradient>
<linearGradient id="paint2_linear_214_240" x1="102.626" y1="42.1514" x2="107.753" y2="42.1514" gradientUnits="userSpaceOnUse">
<stop stop-color="#6D419F"/>
<stop offset="0.484891" stop-color="#9ACC53"/>
<stop offset="0.95" stop-color="#9ACC53"/>
</linearGradient>
<linearGradient id="paint3_linear_214_240" x1="96.2525" y1="46.8961" x2="104.114" y2="46.8961" gradientUnits="userSpaceOnUse">
<stop stop-color="#846292"/>
<stop offset="0.2" stop-color="#8E9672"/>
<stop offset="0.465" stop-color="#9ACC53"/>
<stop offset="1" stop-color="#9ACC52"/>
</linearGradient>
<linearGradient id="paint4_linear_214_240" x1="108.476" y1="39.8248" x2="114.062" y2="39.8248" gradientUnits="userSpaceOnUse">
<stop stop-color="#8E6894"/>
<stop offset="0.201605" stop-color="#9ACC53"/>
<stop offset="0.94892" stop-color="#9ACC53"/>
</linearGradient>
<linearGradient id="paint5_linear_214_240" x1="107.148" y1="35.1282" x2="112.715" y2="34.9591" gradientUnits="userSpaceOnUse">
<stop stop-color="#8D6198"/>
<stop offset="0.290036" stop-color="#94AD67"/>
<stop offset="0.563285" stop-color="#9ACC52"/>
<stop offset="1" stop-color="#9ACC53"/>
</linearGradient>
<linearGradient id="paint6_linear_214_240" x1="106.414" y1="28.4291" x2="112.004" y2="28.4291" gradientUnits="userSpaceOnUse">
<stop stop-color="#8B569F"/>
<stop offset="0.29" stop-color="#939577"/>
<stop offset="1" stop-color="#9ACC53"/>
</linearGradient>
</defs>
</svg>
